<?xml version="1.0" encoding="UTF-8" standalone="no"?>
<!-- Created with Inkscape (http://www.inkscape.org/) -->

<svg
   xmlns:dc="http://purl.org/dc/elements/1.1/"
   xmlns:cc="http://creativecommons.org/ns#"
   xmlns:rdf="http://www.w3.org/1999/02/22-rdf-syntax-ns#"
   xmlns:svg="http://www.w3.org/2000/svg"
   xmlns="http://www.w3.org/2000/svg"
   xmlns:sodipodi="http://sodipodi.sourceforge.net/DTD/sodipodi-0.dtd"
   xmlns:inkscape="http://www.inkscape.org/namespaces/inkscape"
   width="500"
   height="70"
   viewBox="0 0 499.99998 69.999999"
   id="svg2"
   version="1.1"
   inkscape:version="0.91 r13725"
   sodipodi:docname="banner.svg">
  <defs
     id="defs4">
    <linearGradient
       id="lgrad"
       x1="1186.48"
       y1="1017.2354"
       x2="647.1709"
       y2="1322.8475"
       gradientTransform="scale(1.000006,0.99999405)"
       gradientUnits="userSpaceOnUse">
      <stop
         offset="0%"
         style="stop-color:#000000;stop-opacity:0"
         id="stop14298" />
      <stop
         offset="40%"
         style="stop-color:rgb(52,168,83);stop-opacity:1"
         id="stop14300" />
      <stop
         offset="60%"
         style="stop-color:rgb(251,188,5);stop-opacity:1"
         id="stop14302" />
      <stop
         offset="100%"
         style="stop-color:rgb(234,67,53);stop-opacity:1"
         id="stop14304" />
    </linearGradient>
  </defs>
  <sodipodi:namedview
     id="base"
     pagecolor="#ffffff"
     bordercolor="#666666"
     borderopacity="1.0"
     inkscape:pageopacity="0.0"
     inkscape:pageshadow="2"
     inkscape:zoom="2"
     inkscape:cx="262.90376"
     inkscape:cy="62.857143"
     inkscape:document-units="px"
     inkscape:current-layer="layer1"
     showgrid="false"
     units="px"
     inkscape:window-width="1440"
     inkscape:window-height="852"
     inkscape:window-x="0"
     inkscape:window-y="0"
     inkscape:window-maximized="1" />
  <metadata
     id="metadata7">
    <rdf:RDF>
      <cc:Work
         rdf:about="">
        <dc:format>image/svg+xml</dc:format>
        <dc:type
           rdf:resource="http://purl.org/dc/dcmitype/StillImage" />
        <dc:title></dc:title>
      </cc:Work>
    </rdf:RDF>
  </metadata>
  <g
     inkscape:label="Layer 1"
     inkscape:groupmode="layer"
     id="layer1"
     transform="translate(0,-982.3622)">
    <g
       id="g5172">
      <g
         id="g4808">
        <g
           transform="matrix(0.01261798,0,0,0.01261798,3.8238714,984.41965)"
           id="g4426">
          <g
             id="g4407"
             style="fill:#ffffff">
            <path
               id="rect4373"
               d="m 465.08475,646.61017 3957.96605,0 0,3882.03393 -3957.96605,0 z"
               style="fill:#ffffff;fill-opacity:1;stroke:none;stroke-width:1.5;stroke-linejoin:round;stroke-miterlimit:4;stroke-dasharray:none;stroke-opacity:0.00392157" />
            <path
               id="rect4375"
               d="m 787.79663,4262.8813 1347.79667,0 0,455.5933 -1347.79667,0 z"
               style="fill:#ffffff;fill-opacity:1;stroke:none;stroke-width:1.5;stroke-linejoin:round;stroke-miterlimit:4;stroke-dasharray:none;stroke-opacity:0.00392157" />
            <path
               id="rect4377"
               d="m 332.2034,665.59326 455.59323,0 0,3796.61034 -455.59323,0 z"
               style="fill:#ffffff;fill-opacity:1;stroke:none;stroke-width:1.5;stroke-linejoin:round;stroke-miterlimit:4;stroke-dasharray:none;stroke-opacity:0.00392157" />
            <path
               id="rect4379"
               d="m 1205.4237,4405.2539 607.4576,0 0,436.6102 -607.4576,0 z"
               style="fill:#ffffff;fill-opacity:1;stroke:none;stroke-width:1.5;stroke-linejoin:round;stroke-miterlimit:4;stroke-dasharray:none;stroke-opacity:0.00392157" />
            <path
               id="rect4381"
               d="m 616.94916,4300.8477 284.74576,0 0,322.7118 -284.74576,0 z"
               style="fill:#ffffff;fill-opacity:1;stroke:none;stroke-width:1.5;stroke-linejoin:round;stroke-miterlimit:4;stroke-dasharray:none;stroke-opacity:0.00392157" />
            <path
               id="rect4383"
               d="m 1091.5254,4671.0171 227.7966,0 0,142.3729 -227.7966,0 z"
               style="fill:#ffffff;fill-opacity:1;stroke:none;stroke-width:1.5;stroke-linejoin:round;stroke-miterlimit:4;stroke-dasharray:none;stroke-opacity:0.00392157" />
            <path
               id="rect4385"
               d="m 654.91522,485.25424 1157.96608,0 0,227.79662 -1157.96608,0 z"
               style="fill:#ffffff;fill-opacity:1;stroke:none;stroke-width:1.5;stroke-linejoin:round;stroke-miterlimit:4;stroke-dasharray:none;stroke-opacity:0.00392157" />
            <path
               id="rect4387"
               d="m 1642.0339,210.00002 1993.2205,0 0,730.84747 -1993.2205,0 z"
               style="fill:#ffffff;fill-opacity:1;stroke:none;stroke-width:1.5;stroke-linejoin:round;stroke-miterlimit:4;stroke-dasharray:none;stroke-opacity:0.00392157" />
            <path
               id="rect4389"
               d="m 3540.3389,361.86441 531.5254,0 0,436.61017 -531.5254,0 z"
               style="fill:#ffffff;fill-opacity:1;stroke:none;stroke-width:1.5;stroke-linejoin:round;stroke-miterlimit:4;stroke-dasharray:none;stroke-opacity:0.00392157" />
            <path
               id="rect4391"
               d="m 3901.0168,599.15253 322.7119,0 0,161.35592 -322.7119,0 z"
               style="fill:#ffffff;fill-opacity:1;stroke:none;stroke-width:1.5;stroke-linejoin:round;stroke-miterlimit:4;stroke-dasharray:none;stroke-opacity:0.00392157" />
            <path
               id="rect4393"
               d="m 4043.3899,466.27121 151.8644,0 0,189.83051 -151.8644,0 z"
               style="fill:#ffffff;fill-opacity:1;stroke:none;stroke-width:1.5;stroke-linejoin:round;stroke-miterlimit:4;stroke-dasharray:none;stroke-opacity:0.00392157" />
            <path
               id="rect4395"
               d="m 1243.3898,200.50848 683.3898,0 0,379.66101 -683.3898,0 z"
               style="fill:#ffffff;fill-opacity:1;stroke:none;stroke-width:1.5;stroke-linejoin:round;stroke-miterlimit:4;stroke-dasharray:none;stroke-opacity:0.00392157" />
            <path
               id="rect4397"
               d="m 882.71185,304.91525 626.44065,0 0,303.72882 -626.44065,0 z"
               style="fill:#ffffff;fill-opacity:1;stroke:none;stroke-width:1.5;stroke-linejoin:round;stroke-miterlimit:4;stroke-dasharray:none;stroke-opacity:0.00392157" />
            <path
               id="rect4399"
               d="m 635.93219,456.77966 379.66101,0 0,66.44068 -379.66101,0 z"
               style="fill:#ffffff;fill-opacity:1;stroke:none;stroke-width:1.5;stroke-linejoin:round;stroke-miterlimit:4;stroke-dasharray:none;stroke-opacity:0.00392157" />
            <path
               id="rect4401"
               d="m 455.59323,561.18646 351.18643,0 0,170.84746 -351.18643,0 z"
               style="fill:#ffffff;fill-opacity:1;stroke:none;stroke-width:1.5;stroke-linejoin:round;stroke-miterlimit:4;stroke-dasharray:none;stroke-opacity:0.00392157" />
            <path
               id="rect4403"
               d="m 816.27118,390.33899 94.91525,0 0,75.9322 -94.91525,0 z"
               style="fill:#ffffff;fill-opacity:1;stroke:none;stroke-width:1.5;stroke-linejoin:round;stroke-miterlimit:4;stroke-dasharray:none;stroke-opacity:0.00392157" />
            <path
               id="rect4405"
               d="m 597.96613,475.76273 104.40677,0 0,140.26742 -104.40677,0 z"
               style="fill:#ffffff;fill-opacity:1;stroke:none;stroke-width:1.5;stroke-linejoin:round;stroke-miterlimit:4;stroke-dasharray:none;stroke-opacity:0.00392157" />
          </g>
          <path
             inkscape:connector-curvature="0"
             style="fill:#232323;fill-opacity:1"
             id="path8"
             d="m 2351.7393,3772.5398 c -72.3522,0 -142.9609,-1.8231 -211.8261,-3.6463 -42.714,-1.8231 -83.6845,-4.5579 -124.6551,-7.2926 -25.2796,-1.8232 -51.431,-2.7347 -76.7106,-4.5579 -54.9179,-4.5579 -108.0924,-9.1158 -161.2669,-15.4968 -9.5888,-0.9116 -20.0494,-1.8231 -30.5099,-2.7347 -60.1481,-7.2926 -119.4246,-14.5853 -176.9576,-23.701 -1.7435,0 -2.6152,0 -4.3586,-0.9116 -295.5106,-45.5789 -548.3073,-114.8587 -746.18611,-197.8122 -0.87171,0 -1.74343,-0.9116 -3.48685,-0.9116 -36.61194,-15.4968 -70.60873,-30.9936 -103.73381,-47.402 -3.48685,-1.8232 -7.84541,-3.6463 -11.33226,-5.4695 -29.63823,-14.5852 -56.66133,-30.082 -81.94098,-45.5788 -6.10199,-3.6463 -12.20399,-7.2926 -18.30598,-10.9389 -22.66452,-13.6737 -42.71391,-28.2589 -62.7633,-41.9326 -7.84542,-5.4694 -15.69083,-10.9389 -22.66453,-16.4084 -16.56254,-12.762 -31.38165,-25.5241 -46.20077,-39.1978 -7.8454,-7.2926 -15.69083,-14.5852 -22.66453,-21.8778 -11.33226,-11.8505 -21.79281,-23.701 -31.38165,-35.5515 -6.9737,-8.2042 -13.07569,-16.4084 -19.17768,-25.5242 -7.84541,-10.9389 -13.9474,-22.7894 -20.04939,-33.7283 -4.35856,-9.1158 -8.71712,-18.2316 -12.20397,-27.3474 -4.35857,-10.9389 -7.84541,-21.8778 -10.46055,-32.8167 -2.61515,-13.6737 -6.102,-28.2589 -6.102,-42.8441 l 0,-748.4048 c 2.61514,2.7347 5.23028,4.5579 7.84542,7.2926 19.17767,17.32 38.35535,34.64 60.14817,51.9599 328.63565,259.7995 985.03537,461.258 1936.94557,461.258 947.5516,0 1603.0794,-200.5469 1932.5869,-458.5232 26.1514,-20.0547 49.6875,-41.021 72.352,-61.9873 0,0 0,0 0,0 l 0,793.9836 c 0,50.1367 39.2272,91.1577 87.1713,91.1577 47.9443,0 87.1712,-41.021 87.1712,-91.1577 l 0,-1093.8924 0,-45.5789 0,-1093.89242 0,-45.57885 c 0,-15.49681 -5.2301,-29.17046 -12.2038,-41.93254 C 4421.185,421.58267 3669.7687,35.074003 2351.7393,35.074003 c -1314.5427,0 -2065.95904,384.685507 -2166.20599,775.752057 -7.84542,13.67365 -13.07569,28.25889 -13.07569,44.66727 l 0,45.57885 0,1093.89242 0,45.5789 0,1048.3136 0,45.5788 0,1093.8924 c 0,14.5853 3.48685,28.2589 10.46055,41.021 99.37524,440.2917 931.86093,700.0912 1726.86283,762.0784 2.6151,0 4.3585,0 6.9736,0 45.3291,0 83.6844,-36.4631 87.1713,-83.8651 3.4868,-50.1367 -32.2533,-93.8924 -80.1975,-97.5387 -970.2162,-76.5725 -1535.08605,-384.6855 -1574.31312,-636.2808 -0.87171,-4.5579 -1.74343,-8.2042 -2.61514,-11.8505 l 0,-766.6363 c 2.61514,2.7348 5.23028,4.5579 7.84542,7.2926 19.17767,17.32 38.35535,34.64 60.14817,51.9599 328.63565,258.8879 985.03537,460.3464 1936.94557,460.3464 47.9442,0 87.1712,-41.0209 87.1712,-91.1577 0,-50.1367 -39.227,-91.1577 -87.1712,-91.1577 z M 399.1029,1293.0503 c 26.15138,21.8779 54.04618,42.8441 85.42784,63.8104 6.10199,4.5579 13.9474,8.2042 20.04939,12.7621 25.27966,16.4084 52.30275,32.8168 81.06927,49.2251 10.46056,5.4695 20.9211,11.8505 32.25337,17.32 32.25336,17.32 65.37845,33.7284 100.24696,49.2252 6.10198,2.7347 11.33226,5.4694 16.56253,8.2042 40.97049,18.2315 84.55613,35.5515 129.88518,51.9598 12.20398,4.5579 25.27967,9.1158 38.35535,13.6737 35.74024,12.7621 73.22391,24.6126 111.57921,36.4631 13.9474,4.5579 27.0231,8.2042 41.8423,12.7621 50.5594,14.5852 103.7338,29.1704 158.6517,41.9325 7.8454,1.8232 15.6908,3.6463 23.5362,5.4695 48.8159,10.9389 99.3753,20.9662 151.678,30.9936 17.4343,3.6463 35.7403,6.381 53.1745,9.1158 49.6876,8.2041 100.247,16.4083 152.5497,23.701 13.0757,1.8231 26.1514,3.6463 40.0988,5.4694 64.5067,8.2042 131.6286,15.4968 200.4939,20.9663 17.4342,1.8231 34.8685,2.7347 52.3028,3.6463 54.9179,4.5579 111.5791,7.2926 169.1122,10.0273 20.9211,0.9116 41.8422,1.8232 63.6349,2.7348 74.0957,2.7347 150.8064,4.5579 230.1323,4.5579 79.3258,0 156.0365,-1.8232 231.0038,-4.5579 21.7928,-0.9116 42.7139,-1.8232 63.6351,-2.7348 57.5329,-2.7347 114.1943,-6.381 169.1122,-10.0273 17.4342,-0.9116 34.8684,-2.7347 52.3027,-3.6463 68.8653,-6.381 135.9872,-12.7621 200.494,-20.9663 13.9473,-1.8231 26.1513,-3.6463 40.0987,-5.4694 52.3029,-7.2927 102.8621,-14.5853 152.5497,-23.701 18.3059,-2.7348 35.7402,-6.3811 53.1745,-9.1158 52.3028,-10.0274 102.8621,-20.0547 151.678,-30.9936 7.8454,-1.8232 15.6908,-3.6463 23.5362,-5.4695 54.9179,-12.7621 108.0925,-27.3473 158.6517,-41.9325 13.9475,-3.6463 27.8949,-8.2042 41.8422,-12.7621 38.3554,-11.8505 75.839,-23.701 111.5792,-36.4631 13.0757,-4.5579 26.1514,-9.1158 38.3555,-13.6737 45.329,-16.4083 88.9146,-33.7283 129.885,-51.9598 6.1021,-2.7348 11.3323,-5.4695 16.5626,-8.2042 34.8685,-16.4084 68.8653,-32.8168 100.2471,-49.2252 11.3322,-5.4695 21.7927,-11.8505 32.2532,-17.32 28.7666,-16.4083 55.7896,-31.9052 81.0694,-49.2251 6.9737,-4.5579 13.9473,-8.2042 20.0493,-12.7621 30.5099,-20.9663 58.4047,-41.9325 85.4278,-63.8104 6.9737,-5.4695 12.2041,-10.9389 18.306,-16.4084 11.3323,-10.0273 23.5363,-19.1431 33.9968,-29.1704 l 0,748.4047 c 0,14.5852 -3.4868,29.1705 -6.9737,44.6673 -2.6151,10.9389 -6.1019,21.8778 -10.4606,32.8167 -3.4868,9.1158 -7.8454,18.2316 -12.2039,27.3474 -6.102,10.9389 -12.2041,22.7894 -20.0495,33.7283 -6.1019,8.2042 -12.2038,16.4084 -19.1776,25.5242 -9.5888,11.8505 -20.0493,23.701 -31.3816,35.5515 -6.9738,7.2926 -14.8191,14.5852 -22.6645,21.8778 -13.9475,12.7621 -29.6384,26.4357 -46.2008,39.1978 -6.9737,5.4695 -14.8191,10.939 -22.6645,16.4084 -20.0494,14.5852 -40.0989,28.2589 -62.7634,41.9326 -6.1019,3.6463 -12.204,7.2926 -18.306,10.9389 -26.1514,15.4968 -53.1744,30.082 -81.9409,45.5788 -3.4869,1.8232 -7.8454,3.6463 -11.3322,5.4695 -32.2535,16.4084 -67.122,31.9052 -103.7339,47.402 -0.8718,0 -1.7435,0.9116 -3.4868,0.9116 -197.8788,82.9535 -451.5472,152.2333 -746.186,197.8122 -1.7435,0 -2.6152,0 -4.3586,0.9116 -57.533,9.1157 -115.9378,16.4084 -176.9577,23.701 -9.5888,0.9116 -20.0494,1.8231 -30.51,2.7347 -53.1744,5.4695 -106.3489,10.9389 -161.2668,15.4968 -25.2796,1.8232 -51.4311,2.7347 -76.7107,4.5579 -40.9704,2.7347 -81.9409,5.4695 -124.6549,7.2926 -68.8653,-0.9116 -139.4739,0.9116 -211.8261,0.9116 -72.3522,0 -142.9609,-1.8232 -211.8261,-3.6463 -42.714,-1.8232 -83.6845,-4.5579 -124.6551,-7.2926 -25.2796,-1.8232 -51.431,-2.7348 -76.7106,-4.5579 -54.9179,-4.5579 -108.0924,-9.1158 -161.2669,-15.4968 -9.5888,-0.9116 -20.0494,-1.8232 -30.5099,-2.7348 -60.1481,-7.2926 -119.4246,-14.5852 -176.9576,-23.701 -1.7435,0 -2.6152,0 -4.3586,-0.9115 -295.5106,-45.5789 -548.3073,-114.8587 -746.18611,-197.8123 -0.87171,0 -1.74343,-0.9115 -3.48685,-0.9115 -36.61194,-15.4968 -70.60873,-30.9936 -103.73381,-47.402 -3.48685,-1.8232 -7.84541,-3.6463 -11.33226,-5.4695 -29.63823,-14.5852 -56.66133,-30.082 -81.94098,-45.5788 -6.10199,-3.6464 -12.20399,-7.2927 -18.30598,-10.939 -22.66452,-13.6736 -42.71391,-28.2589 -62.7633,-41.9325 -7.84542,-5.4695 -15.69083,-10.9389 -22.66453,-16.4084 -16.56254,-12.7621 -31.38165,-25.5242 -46.20077,-39.1978 -7.8454,-7.2926 -15.69083,-14.5852 -22.66453,-21.8779 -11.33226,-11.8505 -21.79281,-23.701 -31.38165,-35.5515 -6.9737,-8.2042 -13.07569,-16.4084 -19.17768,-25.5241 -7.84541,-10.939 -13.9474,-22.7895 -20.04939,-33.7284 -4.35856,-9.1157 -8.71712,-18.2315 -12.20397,-27.3473 -4.35857,-10.9389 -7.84541,-21.8778 -10.46055,-32.8168 -2.61515,-13.6736 -6.102,-28.2588 -6.102,-42.8441 l 0,-748.4047 c 10.46056,10.0273 22.66454,20.0547 33.9968,29.1704 6.10198,6.3811 12.20397,11.8505 18.30596,17.32 z M 2351.7393,217.38941 c 1181.1706,0 2004.9389,360.07293 2004.9389,683.68277 0,323.60982 -823.7683,683.68282 -2004.9389,683.68282 -1181.1707,0 -2004.93916,-360.073 -2004.93916,-683.68282 0,-323.60984 823.76846,-683.68277 2004.93916,-683.68277 z" />
          <g
             id="g4345"
             transform="matrix(1.4605714,0,0,1.4605714,-2271.9618,-2374.8681)">
            <path
               sodipodi:nodetypes="cscscssscsssc"
               d="m 4745.9898,4116.9624 c -38.5636,-364.4173 -345.2791,-650.8085 -712.9789,-650.8085 -229.5883,0 -446.6208,114.3791 -581.1452,301.4644 -26.008,-4.433 -52.9129,-7.093 -78.9209,-7.093 -208.0643,0 -392.8111,140.0923 -454.6923,337.8175 -171.2942,100.1924 -279.8106,287.2777 -279.8106,487.6629 0,311.2177 250.2153,563.9159 556.9308,563.9159 l 965.8846,0 c 5.3811,0 10.762,0 15.2462,-0.8842 5.381,0 10.7619,0.8842 17.0397,0.8842 l 386.5332,0 c 288.7789,0 524.6449,-238.5116 524.6449,-531.1095 0,-228.7583 -147.0799,-430.9168 -358.7315,-501.8497 z"
               id="path6-2"
               style="fill:#2fd566;fill-opacity:1"
               inkscape:connector-curvature="0" />
            <path
               d="m 4760.3692,4114.9727 c -39.1978,-374.6582 -350.9572,-669.0976 -724.7037,-669.0976 -233.3638,0 -453.9654,117.5935 -590.702,309.9362 -26.4357,-4.5579 -53.783,-7.2926 -80.2187,-7.2926 -211.4859,0 -399.2708,144.0292 -462.1696,347.3108 -174.1112,103.0082 -284.412,295.351 -284.412,501.3674 0,319.9635 254.33,579.763 566.0893,579.763 l 981.7685,0 c 5.4694,0 10.9389,0 15.4968,-0.9116 5.4694,0 10.9389,0.9116 17.3199,0.9116 l 392.8897,0 c 293.5279,0 533.2726,-245.2142 533.2726,-546.0346 0,-235.1869 -149.4986,-443.0265 -364.6308,-515.9526 z m -168.6418,880.5834 -396.536,0 -15.4968,0 -995.4421,0 c -211.4859,0 -383.7739,-178.6691 -383.7739,-397.4476 0,-152.2334 86.5998,-292.6162 220.6016,-358.2498 l 39.1978,-19.1431 9.1158,-42.8441 c 30.082,-142.206 154.0565,-245.2142 294.4394,-245.2142 30.9936,0 62.8988,5.4694 92.9808,15.4968 l 71.1031,23.701 37.3746,-64.722 c 100.2735,-174.1112 275.2963,-277.1194 470.3738,-277.1194 297.1741,0 543.2999,250.6837 546.9462,557.8851 l 0.9116,73.8378 72.9261,14.5852 c 165.907,31.9052 287.1468,182.3154 287.1468,357.3382 -0.9116,198.7238 -158.6144,361.8961 -351.8688,361.8961 z"
               id="path6"
               style="fill:#232323;fill-opacity:1"
               inkscape:connector-curvature="0" />
          </g>
        </g>
        <g
           transform="matrix(0.02416508,0,0,0.02416508,369.40565,950.38798)"
           id="g5652">
          <path
             sodipodi:nodetypes="ccccccccscccccsssssccccccccccccccscccccscccccccccccccccsccsccccccsccccccsssscccccccscccccccc"
             inkscape:connector-curvature="0"
             id="path6441-1-5-7"
             d="m 2278.1902,1458.6675 c -98.4106,-1.152 -199.6721,9.1333 -303.5416,30.7714 -480.0889,99.9218 -808.1204,399.8017 -963.0863,879.0913 l 0,0.02 -0.024,0.064 c -29.76409,92.1717 -76.40508,138.0112 -168.53807,165.9162 l -0.0158,0 -0.0132,0.01 c -328.89631,99.9137 -557.20204,392.3987 -567.07198,727.6065 -6.54642,222.2865 73.88873,431.709 226.46912,588.0854 157.73222,161.7002 376.88712,251.4986 615.13363,253.2007 386.612,2.8775 773.1068,2.1429 1159.3727,1.4663 l 0,0 0,0 c 168.3322,-0.3383 336.6475,-0.6211 504.9467,-0.6211 l 30.0746,0 c 145.2671,0 290.5096,-0.2255 435.7292,-0.3946 145.2956,-0.1692 290.6251,-0.3946 435.9302,-0.3946 l 0.6595,0 c 240.187,0 480.3892,0.6206 720.4387,2.6475 l 0.054,0 9.1274,0.048 0.1055,0 c 161.6685,-0.085 305.4833,-39.1304 435.0955,-118.9189 l 0,0 0,0 c 290.938,-179.2248 427.1127,-430.6661 404.0691,-749.7989 l 0,0 C 5229.9867,2917.5328 5055.537,2682.4513 4746.811,2553.4978 l 0,0 c -90.612,-37.8573 -137.9499,-86.8584 -172.7965,-179.1866 l 0,-0.01 0,-0.01 c -119.1716,-315.2352 -414.56,-520.2838 -750.634,-520.2838 -131.9098,0 -259.9013,31.7281 -379.1789,93.7173 l 0.3246,1.3008 c -0.024,0.012 -0.043,0.024 -0.067,0.036 l 0,0 -0.3247,-1.2983 c -39.0355,20.3964 -69.7004,28.4907 -100.0907,28.4907 -64.6303,0 -106.8882,-38.2108 -137.0181,-71.5474 l -0.049,-0.053 c -263.2796,-290.1064 -576.7216,-441.5691 -927.7819,-445.9598 l -0.036,0 -0.4662,-0.018 -0.4947,0 -0.013,0 z m 815.1408,686.7501 c 331.1001,3.8524 -193.3118,-471.6531 59.5971,-192.9903 l 0,0 c 0.015,0.017 0.032,0.032 0.046,0.048 0,0.01 0.013,0.014 0.019,0.02 l 10.5908,11.6717 0.4586,0 C 1492.5639,704.72741 2905.8196,3136.8267 2990.7119,3136.8267 c 44.0075,0 600.8679,-976.8834 487.2305,-1125.6973 0.024,-0.012 -13.9116,15.5121 -13.8879,15.5001 109.4159,-56.8501 -1308.7262,1993.7577 -1188.5505,1993.7577 306.3605,0 825.9898,-1020.1564 935.0766,-731.5973 l 143.0092,-41.5801 c 40.0321,106.0677 -607.1179,-1020.5389 -502.545,-976.8495 l 134.5967,1039.0587 c 289.3202,120.8468 364.9847,-65.2356 386.4916,232.3951 21.467,297.3052 434.2617,282.12 159.8905,451.149 -118.4761,72.9308 1031.6477,41.5827 881.3937,41.5827 l -0.2294,0 c -8.0288,-0.057 -3.2314,0 -7.762,-0.053 l -0.095,0 -0.095,0 c -251.3759,-1.792 -506.5122,-2.6279 -721.6675,-2.65 l 0,0 251.7097,-415.6225 c 74.5409,-123.0821 -542.6705,415.8482 -687.7275,416.0171 -145.2386,0.1692 -290.4504,0.3945 -435.6416,0.3945 l -30.0746,0 c -168.3813,0 -345.1577,-174.2786 -513.506,-173.9403 -386.2705,0.6767 -873.4851,-65.0918 -1150.2776,173.0952 l 159.8338,-108.0618 -159.847,-16.6249 c -220.21027,-1.571 -419.67106,40.8212 -563.466,-106.5911 l 0,0 185.0707,182.8739 C 600.62229,3840.9013 4859.7804,4091.6657 4865.7882,3887.6652 4874.749,3583.3394 564.30974,2694.1651 864.24973,2603.0332 973.56647,2569.9236 1045.564,2498.9993 1080.6408,2390.336 l 900.1167,49.8568 C 2129.4927,1980.1912 807.7504,2319.9484 1266.1428,2224.544 l -479.50143,382.3726 -25.2369,1396.4915 c 0,0 2685.06013,44.4816 2777.77373,45.5602 z"
             style="color:#000000;font-style:normal;font-variant:normal;font-weight:normal;font-stretch:normal;font-size:medium;line-height:normal;font-family:sans-serif;text-indent:0;text-align:start;text-decoration:none;text-decoration-line:none;text-decoration-style:solid;text-decoration-color:#000000;letter-spacing:normal;word-spacing:normal;text-transform:none;direction:ltr;block-progression:tb;writing-mode:lr-tb;baseline-shift:baseline;text-anchor:start;white-space:normal;clip-rule:nonzero;display:inline;overflow:visible;visibility:visible;opacity:1;isolation:auto;mix-blend-mode:normal;color-interpolation:sRGB;color-interpolation-filters:linearRGB;solid-color:#000000;solid-opacity:1;fill:#2fd566;fill-opacity:1;fill-rule:nonzero;stroke:none;stroke-width:53.97244644;stroke-linecap:butt;stroke-linejoin:miter;stroke-miterlimit:4;stroke-dasharray:none;stroke-dashoffset:0;stroke-opacity:1;color-rendering:auto;image-rendering:auto;shape-rendering:auto;text-rendering:auto;enable-background:accumulate" />
          <g
             id="g5645">
            <path
               style="color:#000000;font-style:normal;font-variant:normal;font-weight:normal;font-stretch:normal;font-size:medium;line-height:normal;font-family:sans-serif;text-indent:0;text-align:start;text-decoration:none;text-decoration-line:none;text-decoration-style:solid;text-decoration-color:#000000;letter-spacing:normal;word-spacing:normal;text-transform:none;direction:ltr;block-progression:tb;writing-mode:lr-tb;baseline-shift:baseline;text-anchor:start;white-space:normal;clip-rule:nonzero;display:inline;overflow:visible;visibility:visible;opacity:1;isolation:auto;mix-blend-mode:normal;color-interpolation:sRGB;color-interpolation-filters:linearRGB;solid-color:#000000;solid-opacity:1;fill:#232323;fill-opacity:1;fill-rule:nonzero;stroke:none;stroke-width:53.97244644;stroke-linecap:butt;stroke-linejoin:miter;stroke-miterlimit:4;stroke-dasharray:none;stroke-dashoffset:0;stroke-opacity:1;color-rendering:auto;image-rendering:auto;shape-rendering:auto;text-rendering:auto;enable-background:accumulate"
               d="m 2282.532,1426.7014 c -98.7933,-1.1704 -200.4486,9.279 -304.722,31.2622 -481.9559,101.5153 -811.2631,406.1779 -966.8317,893.1114 l 0,0.021 -0.024,0.065 c -29.87978,93.6417 -76.70215,140.2123 -169.19343,168.5623 l -0.0159,0 -0.0132,0.01 c -330.17528,101.5094 -559.36886,398.659 -569.27719,739.2129 -6.57187,225.8316 74.17608,438.5941 227.34984,597.4644 158.34561,164.2791 378.35279,255.5097 617.52578,257.2389 388.1154,2.9233 776.1133,2.1771 1163.8813,1.4897 l 0,0 0,0 c 168.9869,-0.3437 337.9568,-0.6311 506.9104,-0.6311 l 30.1916,0 c 145.8321,0 291.6393,-0.229 437.4237,-0.4008 145.8606,-0.1719 291.7553,-0.4009 437.6254,-0.4009 l 0.6621,0 c 241.1211,0 482.2574,0.6305 723.2404,2.6897 l 0.054,0 9.163,0.049 0.1059,0 c 162.2971,-0.086 306.6713,-39.7545 436.7875,-120.8154 l 0,0 0,0 c 292.0694,-182.0832 428.7737,-437.5346 405.6404,-761.7571 l 0,0 c -23.2083,-325.0363 -198.3364,-563.8671 -508.263,-694.8772 l 0,0 c -90.9644,-38.4611 -138.4863,-88.2437 -173.4684,-182.0444 l 0,-0.01 0,-0.011 c -119.6354,-320.2643 -416.1725,-528.5831 -753.5534,-528.5831 -132.4228,0 -260.9121,32.2341 -380.6535,95.2119 l 0.3258,1.3216 c -0.024,0.012 -0.044,0.024 -0.067,0.036 l 0,0 -0.3259,-1.319 c -39.1873,20.7216 -69.9715,28.945 -100.48,28.945 -64.8816,0 -107.3038,-38.8201 -137.5509,-72.6884 l -0.049,-0.054 c -264.3036,-294.7257 -578.9645,-448.604 -931.39,-453.0647 l -0.036,0 -0.4681,-0.019 -0.4966,0 -0.013,0 z m -0.856,72.7712 c 332.3876,3.9139 625.1033,145.7562 878.9957,428.8633 l 0,0 c 0.015,0.017 0.032,0.032 0.046,0.049 0,0.01 0.013,0.014 0.019,0.021 l 10.632,11.8579 0.4604,0 c 36.3606,37.8941 95.4641,85.0609 180.6865,85.0609 44.1787,0 88.0584,-12.8409 134.4345,-37.3529 0.024,-0.012 0.046,-0.024 0.07,-0.036 109.8414,-57.7568 226.0559,-86.8066 346.6989,-86.8066 307.552,0 575.8515,188.1017 685.3625,481.2628 l 0,-0.018 c 40.1878,107.7594 108.3477,179.2681 213.3273,223.6542 l 0,0 c 290.4453,122.7741 442.4092,330.64 463.9997,633.0174 21.5505,302.0467 -96.0858,523.0799 -371.5241,694.8048 -118.9368,74.0938 -247.9833,109.8059 -398.8217,109.8059 l -0.2303,0 c -8.06,-0.057 -3.244,0 -7.7922,-0.054 l -0.095,0 -0.095,0 c -252.3535,-1.8206 -508.4819,-2.6699 -724.474,-2.6923 l 0,0 -0.6621,0 c -145.7256,7e-4 -291.4302,0.2293 -437.0513,0.4009 -145.8034,0.1718 -291.58,0.4008 -437.3357,0.4008 l -30.1916,0 c -169.0362,0 -338.0549,0.2873 -507.0579,0.6311 -387.7727,0.6874 -775.5417,1.4302 -1163.196,-1.4897 l 0,0 -0.013,0 C 896.80193,4039.2571 696.56547,3955.65 552.21132,3805.8867 l 0,0 0,0 C 412.64989,3661.1378 339.18581,3468.3154 345.21703,3261.0614 c 8.9956,-309.1793 216.76951,-579.1581 517.87592,-671.7434 109.74187,-33.6376 182.01935,-105.693 217.23255,-216.0895 l 0,-0.018 c 149.3136,-467.3379 452.3202,-747.0936 912.4952,-844.0196 l 0,0 0,0 c 99.4891,-20.9748 195.7761,-30.8142 288.8502,-29.7184 z"
               id="path6441-1"
               inkscape:connector-curvature="0" />
            <g
               id="text4413-7"
               style="font-style:normal;font-weight:normal;font-size:295.38851929px;line-height:125%;font-family:sans-serif;letter-spacing:0px;word-spacing:0px;fill:#232323;fill-opacity:1;stroke:none;stroke-width:1px;stroke-linecap:butt;stroke-linejoin:miter;stroke-opacity:1">
              <path
                 id="path5129"
                 style="font-style:normal;font-variant:normal;font-weight:normal;font-stretch:normal;font-size:664.62414551px;font-family:Orbitron;-inkscape-font-specification:Orbitron;fill:#232323;fill-opacity:1"
                 d="m 1481.26,3391.156 0,5.317 -55.1638,0 0,-5.317 q 0,-10.634 -7.9755,-17.9448 -7.3108,-7.9755 -17.9448,-7.9755 l -231.2892,0 q -10.634,0 -18.6095,7.9755 -7.3109,7.3108 -7.3109,17.9448 l 0,59.1516 q 0,10.634 7.3109,18.6094 7.9755,7.3109 18.6095,7.3109 l 231.2892,0 q 33.8958,0 57.1576,23.9265 23.9265,23.2618 23.9265,56.493 l 0,59.1516 q 0,33.2312 -23.9265,57.1577 -23.2618,23.2618 -57.1576,23.2618 l -231.2892,0 q -33.2312,0 -57.1577,-23.2618 -23.2619,-23.9265 -23.2619,-57.1577 l 0,-5.317 54.4992,0 0,5.317 q 0,10.634 7.3109,18.6095 7.9755,7.3108 18.6095,7.3108 l 231.2892,0 q 10.634,0 17.9448,-7.3108 7.9755,-7.9755 7.9755,-18.6095 l 0,-59.1516 q 0,-10.634 -7.9755,-17.9448 -7.3108,-7.9755 -17.9448,-7.9755 l -231.2892,0 q -33.2312,0 -57.1577,-23.2619 -23.2619,-23.9264 -23.2619,-57.1576 l 0,-59.1516 q 0,-33.2312 23.2619,-56.493 23.9265,-23.9265 57.1577,-23.9265 l 231.2892,0 q 33.8958,0 57.1576,23.9265 23.9265,23.2618 23.9265,56.493 z" />
              <path
                 id="path5131"
                 style="font-style:normal;font-variant:normal;font-weight:normal;font-stretch:normal;font-size:664.62414551px;font-family:Orbitron;-inkscape-font-specification:Orbitron;fill:#232323;fill-opacity:1"
                 d="m 1626.5116,3310.7365 231.2892,0 q 33.8958,0 57.1576,23.9265 23.9265,23.2618 23.9265,56.493 l 0,224.643 q 0,33.2312 -23.9265,57.1577 -23.2618,23.2618 -57.1576,23.2618 l -231.2892,0 q -33.2313,0 -57.1577,-23.2618 -23.2619,-23.9265 -23.2619,-57.1577 l 0,-224.643 q 0,-33.2312 23.2619,-56.493 23.9264,-23.9265 57.1577,-23.9265 z m 231.2892,54.4992 -231.2892,0 q -10.634,0 -18.6095,7.9755 -7.3109,7.3108 -7.3109,17.9448 l 0,224.643 q 0,10.634 7.3109,18.6095 7.9755,7.3108 18.6095,7.3108 l 231.2892,0 q 10.6339,0 17.9448,-7.3108 7.9755,-7.9755 7.9755,-18.6095 l 0,-224.643 q 0,-10.634 -7.9755,-17.9448 -7.3109,-7.9755 -17.9448,-7.9755 z" />
              <path
                 id="path5133"
                 style="font-style:normal;font-variant:normal;font-weight:normal;font-stretch:normal;font-size:664.62414551px;font-family:Orbitron;-inkscape-font-specification:Orbitron;fill:#232323;fill-opacity:1"
                 d="m 2087.3661,3238.9571 q -10.634,0 -18.6095,7.9755 -7.3108,7.3108 -7.3108,17.9448 l 0,45.8591 166.8206,0 0,54.4992 -166.8206,0 0,330.9828 -54.4992,0 0,-431.3411 q 0,-33.8958 23.2618,-57.1576 23.2619,-23.2619 57.1577,-23.2619 l 140.9003,0 0,54.4992 -140.9003,0 z" />
              <path
                 id="path5135"
                 style="font-style:normal;font-variant:normal;font-weight:normal;font-stretch:normal;font-size:664.62414551px;font-family:Orbitron;-inkscape-font-specification:Orbitron;fill:#232323;fill-opacity:1"
                 d="m 2502.1643,3365.2357 -166.8207,0 0,250.5633 q 0,10.634 7.3109,18.6095 7.9755,7.3108 18.6095,7.3108 l 140.9003,0 0,54.4992 -140.9003,0 q -33.8958,0 -57.1577,-23.2618 -23.2618,-23.9265 -23.2618,-57.1577 l 0,-431.3411 54.4991,0 0,126.2786 166.8207,0 0,54.4992 z" />
              <path
                 id="path5137"
                 style="font-style:normal;font-variant:normal;font-weight:normal;font-stretch:normal;font-size:664.62414551px;font-family:Orbitron;-inkscape-font-specification:Orbitron;fill:#232323;fill-opacity:1"
                 d="m 3154.2644,3310.7365 59.1516,0 -145.5527,385.482 -47.1883,0 -143.5588,-318.355 -136.248,318.355 -47.8529,0 -151.5343,-385.482 58.4869,0 116.9738,287.1176 124.2848,-287.1176 71.7794,0 132.2602,286.453 108.9983,-286.453 z" />
              <path
                 id="path5139"
                 style="font-style:normal;font-variant:normal;font-weight:normal;font-stretch:normal;font-size:664.62414551px;font-family:Orbitron;-inkscape-font-specification:Orbitron;fill:#232323;fill-opacity:1"
                 d="m 3575.8439,3310.7365 q 33.8958,0 57.1577,23.9265 23.9264,23.2618 23.9264,56.493 l 0,305.0625 -312.3733,0 q -33.2312,0 -57.1577,-23.2618 -23.2618,-23.9265 -23.2618,-57.1577 l 0,-139.5711 337.629,0 0,-85.0719 q 0,-10.634 -7.9755,-17.9448 -7.3108,-7.9755 -17.9448,-7.9755 l -311.7087,0 0,-54.4992 311.7087,0 z m 25.9203,330.9828 0,-110.9922 -283.1299,0 0,85.0719 q 0,10.634 7.3109,18.6095 7.9755,7.3108 18.6095,7.3108 l 257.2095,0 z" />
              <path
                 id="path5141"
                 style="font-style:normal;font-variant:normal;font-weight:normal;font-stretch:normal;font-size:664.62414551px;font-family:Orbitron;-inkscape-font-specification:Orbitron;fill:#232323;fill-opacity:1"
                 d="m 3801.4836,3310.7365 216.6675,0 0,54.4992 -216.6675,0 q -10.6339,0 -18.6094,7.9755 -7.3109,7.3108 -7.3109,17.9448 l 0,305.0625 -54.4992,0 0,-305.0625 q 0,-33.2312 23.2619,-56.493 23.9264,-23.9265 57.1576,-23.9265 z" />
              <path
                 id="path5143"
                 style="font-style:normal;font-variant:normal;font-weight:normal;font-stretch:normal;font-size:664.62414551px;font-family:Orbitron;-inkscape-font-specification:Orbitron;fill:#232323;fill-opacity:1"
                 d="m 4373.5071,3310.7365 q 33.8959,0 57.1577,23.9265 23.9265,23.2618 23.9265,56.493 l 0,139.5711 -338.2937,0 0,85.0719 q 0,10.634 7.3109,18.6095 7.9755,7.3108 18.6094,7.3108 l 312.3734,0 0,54.4992 -312.3734,0 q -33.2312,0 -57.1576,-23.2618 -23.2619,-23.9265 -23.2619,-57.1577 l 0,-224.643 q 0,-33.2312 23.2619,-56.493 23.9264,-23.9265 57.1576,-23.9265 l 231.2892,0 z m -257.2095,165.4914 283.1299,0 0,-85.0719 q 0,-10.634 -7.9755,-17.9448 -7.3109,-7.9755 -17.9449,-7.9755 l -231.2892,0 q -10.6339,0 -18.6094,7.9755 -7.3109,7.3108 -7.3109,17.9448 l 0,85.0719 z" />
            </g>
            <g
               id="text4180-2"
               style="font-style:normal;font-weight:normal;font-size:272.61499023px;line-height:125%;font-family:sans-serif;letter-spacing:71.20999908px;word-spacing:0px;fill:#ffffff;fill-opacity:1;stroke:none;stroke-width:1px;stroke-linecap:butt;stroke-linejoin:miter;stroke-opacity:1">
              <path
                 id="path5146"
                 style="font-style:normal;font-variant:normal;font-weight:300;font-stretch:normal;font-size:1226.76733398px;line-height:125%;font-family:VAGRounded-Light;-inkscape-font-specification:'VAGRounded-Light Light';letter-spacing:71.20999908px;fill:#ffffff;fill-opacity:1"
                 d="m 1290.246,2405.2921 2.4536,0 208.5504,704.1644 q 7.3606,24.5353 20.8551,34.3495 13.4944,9.8141 34.3495,9.8141 20.855,0 34.3494,-9.8141 13.4945,-9.8142 20.8551,-34.3495 l 208.5504,-704.1644 2.4536,0 101.8217,701.7109 q 3.6803,25.7621 18.4015,36.803 15.9479,9.8141 39.2565,9.8141 50.2975,0 50.2975,-55.2045 0,-14.7212 -6.1339,-49.0707 L 1907.31,2347.634 q -7.3606,-42.9369 -30.6692,-62.5651 -22.0818,-19.6283 -53.9777,-19.6283 -31.896,0 -50.2975,13.4944 -18.4015,12.2677 -28.2156,42.9369 l -186.4687,639.1458 -2.4535,0 -186.4686,-639.1458 q -8.5874,-30.6692 -26.9889,-42.9369 -18.4015,-13.4944 -51.5243,-13.4944 -31.8959,0 -55.2045,19.6283 -22.0818,19.6282 -29.4424,62.5651 l -118.9964,701.7109 q -6.1339,34.3495 -6.1339,49.0707 0,55.2045 50.2975,55.2045 24.5353,0 39.2565,-9.8141 14.7213,-11.0409 18.4016,-36.803 l 101.8216,-701.7109 z" />
              <path
                 id="path5148"
                 style="font-style:normal;font-variant:normal;font-weight:300;font-stretch:normal;font-size:1226.76733398px;line-height:125%;font-family:VAGRounded-Light;-inkscape-font-specification:'VAGRounded-Light Light';letter-spacing:71.20999908px;fill:#ffffff;fill-opacity:1"
                 d="m 2312.1816,2956.1106 404.8332,0 56.4313,157.0262 q 7.3606,19.6283 19.6283,30.6692 12.2677,9.8141 33.1227,9.8141 22.0818,0 36.803,-12.2676 14.7212,-12.2677 14.7212,-33.1228 0,-7.3606 -3.6803,-19.6282 -3.6803,-12.2677 -8.5873,-26.9889 -1.2268,-4.9071 -2.4536,-7.3606 l -271.1156,-722.566 q -11.0409,-30.6692 -29.4424,-47.8439 -18.4015,-18.4015 -47.8439,-18.4015 -29.4424,0 -47.8439,18.4015 -18.4015,17.1747 -29.4424,47.8439 l -271.1156,722.566 q -1.2268,2.4535 -2.4536,7.3606 -4.907,14.7212 -8.5873,26.9889 -3.6803,12.2676 -3.6803,19.6282 0,20.8551 14.7212,33.1228 14.7212,12.2676 36.803,12.2676 20.855,0 33.1227,-9.8141 12.2677,-11.0409 19.6283,-30.6692 l 56.4313,-157.0262 z m 371.7105,-93.2343 -338.5878,0 168.0671,-472.3055 2.4536,0 168.0671,472.3055 z" />
              <path
                 id="path5150"
                 style="font-style:normal;font-variant:normal;font-weight:300;font-stretch:normal;font-size:1226.76733398px;line-height:125%;font-family:VAGRounded-Light;-inkscape-font-specification:'VAGRounded-Light Light';letter-spacing:71.20999908px;fill:#ffffff;fill-opacity:1"
                 d="m 3139.4828,2323.0986 q 0,-26.9888 -14.7212,-41.71 -14.7212,-15.948 -39.2566,-15.948 -24.5353,0 -39.2565,15.948 -14.7212,14.7212 -14.7212,41.71 l 0,772.8635 q 0,26.9888 14.7212,42.9368 14.7212,14.7212 39.2565,14.7212 24.5354,0 39.2566,-14.7212 14.7212,-15.948 14.7212,-42.9368 l 0,-772.8635 z" />
              <path
                 id="path5152"
                 style="font-style:normal;font-variant:normal;font-weight:300;font-stretch:normal;font-size:1226.76733398px;line-height:125%;font-family:VAGRounded-Light;-inkscape-font-specification:'VAGRounded-Light Light';letter-spacing:71.20999908px;fill:#ffffff;fill-opacity:1"
                 d="m 3501.5326,3095.9621 q 0,26.9888 14.7212,42.9368 14.7212,14.7212 39.2565,14.7212 24.5354,0 39.2566,-14.7212 14.7212,-15.948 14.7212,-42.9368 l 0,-722.566 163.16,0 q 24.5354,0 38.0298,-12.2677 14.7212,-13.4944 14.7212,-38.0298 0,-24.5353 -14.7212,-36.803 -13.4944,-13.4944 -38.0298,-13.4944 l -434.2756,0 q -24.5353,0 -39.2566,13.4944 -13.4944,12.2677 -13.4944,36.803 0,24.5354 13.4944,38.0298 14.7213,12.2677 39.2566,12.2677 l 163.1601,0 0,722.566 z" />
              <path
                 id="path5154"
                 style="font-style:normal;font-variant:normal;font-weight:300;font-stretch:normal;font-size:1226.76733398px;line-height:125%;font-family:VAGRounded-Light;-inkscape-font-specification:'VAGRounded-Light Light';letter-spacing:71.20999908px;fill:#ffffff;fill-opacity:1"
                 d="m 4190.2472,2265.4406 q -58.8848,0 -106.7287,19.6283 -47.8439,19.6282 -82.1934,53.9777 -33.1228,33.1227 -51.5243,72.3793 -17.1747,39.2565 -17.1747,78.5131 0,55.2045 18.4015,94.4611 19.6283,38.0298 52.751,63.7919 33.1227,25.7621 68.699,41.7101 36.803,14.7212 92.0075,34.3495 46.6172,15.9479 74.8328,28.2156 29.4424,11.0409 53.9778,29.4424 25.7621,17.1748 39.2565,41.7101 14.7213,24.5354 14.7213,58.8848 0,74.8329 -49.0707,126.3571 -49.0707,51.5242 -130.0374,51.5242 -45.3904,0 -79.7399,-12.2677 -33.1227,-13.4944 -69.9257,-34.3495 -35.5762,-20.855 -49.0707,-20.855 -22.0818,0 -34.3495,15.948 -11.0409,15.948 -11.0409,39.2565 0,22.0818 20.8551,41.7101 20.855,19.6283 56.4313,34.3495 35.5762,13.4945 78.5131,22.0818 42.9368,7.3606 87.1005,7.3606 69.9257,0 125.1302,-22.0818 55.2046,-22.0818 93.2343,-60.1116 38.0298,-39.2565 57.6581,-88.3272 19.6283,-50.2975 19.6283,-105.502 0,-57.6581 -20.8551,-98.1414 -19.6282,-41.7101 -53.9777,-68.699 -33.1227,-26.9889 -69.9258,-42.9368 -36.803,-17.1748 -95.6878,-38.0298 -42.9369,-14.7212 -71.1525,-25.7621 -28.2157,-12.2677 -52.751,-28.2157 -23.3086,-17.1747 -36.803,-39.2565 -13.4945,-23.3086 -13.4945,-53.9778 0,-55.2045 39.2566,-89.554 39.2565,-34.3495 99.3681,-34.3495 42.9369,0 68.699,9.8141 26.9889,9.8142 52.751,26.9889 31.896,19.6283 50.2975,19.6283 19.6282,0 33.1227,-13.4945 13.4944,-14.7212 13.4944,-34.3494 0,-20.8551 -18.4015,-39.2566 -17.1747,-18.4015 -47.8439,-31.8959 -30.6692,-14.7212 -69.9258,-22.0819 -38.0297,-8.5873 -78.5131,-8.5873 z" />
            </g>
          </g>
        </g>
        <g
           id="text4723"
           style="font-style:normal;font-weight:normal;font-size:55.26556015px;line-height:125%;font-family:sans-serif;letter-spacing:0px;word-spacing:0px;fill:#000000;fill-opacity:1;stroke:none;stroke-width:1px;stroke-linecap:butt;stroke-linejoin:miter;stroke-opacity:1">
          <path
             id="path5157"
             style="font-style:normal;font-variant:normal;font-weight:normal;font-stretch:normal;font-family:Orbitron;-inkscape-font-specification:Orbitron"
             d="m 96.89887,1017.1411 16.5244,-19.67449 6.13448,0 0,39.79119 -4.47651,0 0,-34.7068 -18.18237,21.6089 -18.18237,-21.6089 0,34.7068 -4.47651,0 0,-39.79119 6.134477,0 16.524403,19.67449 z" />
          <path
             id="path5159"
             style="font-style:normal;font-variant:normal;font-weight:normal;font-stretch:normal;font-family:Orbitron;-inkscape-font-specification:Orbitron"
             d="m 125.67496,1037.2578 0,-39.79119 4.47651,0 0,39.79119 -4.47651,0 z" />
          <path
             id="path5161"
             style="font-style:normal;font-variant:normal;font-weight:normal;font-stretch:normal;font-family:Orbitron;-inkscape-font-specification:Orbitron"
             d="m 173.13166,1032.1734 0,-34.70679 4.47651,0 0,39.79119 -6.13447,0 -29.18022,-34.7068 0,34.7068 -4.47651,0 0,-39.79119 6.13448,0 29.18021,34.70679 z" />
          <path
             id="path5163"
             style="font-style:normal;font-variant:normal;font-weight:normal;font-stretch:normal;font-family:Orbitron;-inkscape-font-specification:Orbitron"
             d="m 220.32759,997.46661 0,4.47649 -31.83296,0 0,13.1532 25.58795,0 0,4.5318 -25.58795,0 0,13.1532 31.83296,0 0,4.4765 -36.30947,0 0,-39.79119 36.30947,0 z" />
          <path
             id="path5165"
             style="font-style:normal;font-variant:normal;font-weight:normal;font-stretch:normal;font-family:Orbitron;-inkscape-font-specification:Orbitron"
             d="m 266.06415,1004.1537 0,11.6611 q 0,2.7633 -1.93429,4.6975 -1.9343,1.9343 -4.69757,1.9343 l -6.07921,0 12.49001,14.8112 -5.91341,0 -12.43475,-14.8112 -14.59011,0 q -0.49739,0 -2.15536,-0.221 l 0,15.0322 -4.47651,0 0,-39.73593 33.15934,0 q 2.76327,0 4.69757,1.9343 1.93429,1.93433 1.93429,4.69753 z m -33.15933,13.7612 26.52747,0 q 0.88425,0 1.49217,-0.608 0.60792,-0.6079 0.60792,-1.4921 l 0,-11.6611 q 0,-0.8842 -0.60792,-1.4921 -0.60792,-0.6632 -1.49217,-0.6632 l -26.52747,0 q -0.88425,0 -1.54744,0.6632 -0.60792,0.6079 -0.60792,1.4921 l 0,11.6611 q 0,0.8842 0.60792,1.4921 0.66319,0.608 1.54744,0.608 z" />
          <path
             id="path5167"
             style="font-style:normal;font-variant:normal;font-weight:normal;font-stretch:normal;font-family:Orbitron;-inkscape-font-specification:Orbitron"
             d="m 295.39031,1032.8918 20.33773,-35.42519 5.25023,0 -22.99048,39.79119 -5.19496,0 -23.04574,-39.79119 5.25023,0 20.39299,35.42519 z" />
          <path
             id="path5169"
             style="font-style:normal;font-variant:normal;font-weight:normal;font-stretch:normal;font-family:Orbitron;-inkscape-font-specification:Orbitron"
             d="m 331.08064,997.46661 26.52747,0 q 2.76328,0 4.69757,1.93429 1.9343,1.9343 1.9343,4.6976 l 0,33.1593 -4.47651,0 0,-14.5348 -30.83819,0 0,14.5348 -4.47651,0 0,-33.1593 q 0,-2.7633 1.9343,-4.6976 1.93429,-1.93429 4.69757,-1.93429 z m -2.15536,20.77989 30.83819,0 0,-14.148 q 0,-0.8843 -0.66319,-1.4922 -0.60792,-0.6632 -1.49217,-0.6632 l -26.52747,0 q -0.88425,0 -1.54744,0.6632 -0.60792,0.6079 -0.60792,1.4922 l 0,14.148 z" />
        </g>
      </g>
    </g>
  </g>
</svg>
