<?xml version="1.0" encoding="UTF-8" standalone="no"?>
<svg
   xmlns:dc="http://purl.org/dc/elements/1.1/"
   xmlns:cc="http://creativecommons.org/ns#"
   xmlns:rdf="http://www.w3.org/1999/02/22-rdf-syntax-ns#"
   xmlns:svg="http://www.w3.org/2000/svg"
   xmlns="http://www.w3.org/2000/svg"
   xmlns:sodipodi="http://sodipodi.sourceforge.net/DTD/sodipodi-0.dtd"
   xmlns:inkscape="http://www.inkscape.org/namespaces/inkscape"
   viewBox="0 0 25 25"
   version="1.1"
   xml:space="preserve"
   style="clip-rule:evenodd;fill-rule:evenodd;stroke-linejoin:round;stroke-miterlimit:1.41420996"
   x="0px"
   y="0px"
   stroke-miterlimit="1.41421"
   id="svg5025"
   inkscape:version="0.91 r13725"
   sodipodi:docname="filtrar_click.svg"
   width="25"
   height="25"><metadata
     id="metadata5039"><rdf:RDF><cc:Work
         rdf:about=""><dc:format>image/svg+xml</dc:format><dc:type
           rdf:resource="http://purl.org/dc/dcmitype/StillImage" /><dc:title></dc:title></cc:Work></rdf:RDF></metadata><defs
     id="defs5037"><linearGradient
       id="lgrad"
       x1="1186.48"
       y1="1017.2354"
       x2="647.1709"
       y2="1322.8475"
       gradientTransform="scale(1.000006,0.99999405)"
       gradientUnits="userSpaceOnUse"><stop
         offset="0%"
         style="stop-color:#000000;stop-opacity:0"
         id="stop14298" /><stop
         offset="40%"
         style="stop-color:rgb(52,168,83);stop-opacity:1"
         id="stop14300" /><stop
         offset="60%"
         style="stop-color:rgb(251,188,5);stop-opacity:1"
         id="stop14302" /><stop
         offset="100%"
         style="stop-color:rgb(234,67,53);stop-opacity:1"
         id="stop14304" /></linearGradient></defs><sodipodi:namedview
     pagecolor="#ffffff"
     bordercolor="#666666"
     borderopacity="1"
     objecttolerance="10"
     gridtolerance="10"
     guidetolerance="10"
     inkscape:pageopacity="0"
     inkscape:pageshadow="2"
     inkscape:window-width="1448"
     inkscape:window-height="861"
     id="namedview5035"
     showgrid="false"
     inkscape:zoom="19.46775"
     inkscape:cx="12.500004"
     inkscape:cy="12.5"
     inkscape:window-x="0"
     inkscape:window-y="0"
     inkscape:window-maximized="0"
     inkscape:current-layer="svg5025" /><g
     transform="matrix(0.53191489,0,0,0.53191489,-306.64893,-51.595744)"
     id="g5027"
     style="fill:#2fd566;fill-opacity:1"><path
       d="m 584.15,134 c 0.696,-3.422 3.724,-6 7.35,-6 3.626,0 6.654,2.578 7.35,6 l 23.15,0 c 0.828,0 1.5,0.672 1.5,1.5 0,0.828 -0.672,1.5 -1.5,1.5 l -23.15,0 c -0.696,3.422 -3.724,6 -7.35,6 -3.626,0 -6.654,-2.578 -7.35,-6 l -6.15,0 c -0.828,0 -1.5,-0.672 -1.5,-1.5 0,-0.828 0.672,-1.5 1.5,-1.5 l 6.15,0 z m 7.35,6 c -2.481,0 -4.5,-2.019 -4.5,-4.5 0,-2.481 2.019,-4.5 4.5,-4.5 2.481,0 4.5,2.019 4.5,4.5 0,2.481 -2.019,4.5 -4.5,4.5 z m 9.65,-21 c 0.696,-3.422 3.724,-6 7.35,-6 3.626,0 6.654,2.578 7.35,6 l 6.15,0 c 0.828,0 1.5,0.672 1.5,1.5 0,0.828 -0.672,1.5 -1.5,1.5 l -6.15,0 c -0.696,3.422 -3.724,6 -7.35,6 -3.626,0 -6.654,-2.578 -7.35,-6 L 578,122 c -0.828,0 -1.5,-0.672 -1.5,-1.5 0,-0.828 0.672,-1.5 1.5,-1.5 l 23.15,0 z m 7.35,6 c -2.481,0 -4.5,-2.019 -4.5,-4.5 0,-2.481 2.019,-4.5 4.5,-4.5 2.481,0 4.5,2.019 4.5,4.5 0,2.481 -2.019,4.5 -4.5,4.5 z m -24.35,-21 c 0.696,-3.422 3.724,-6 7.35,-6 3.626,0 6.654,2.578 7.35,6 l 23.15,0 c 0.828,0 1.5,0.672 1.5,1.5 0,0.828 -0.672,1.5 -1.5,1.5 l -23.15,0 c -0.696,3.422 -3.724,6 -7.35,6 -3.626,0 -6.654,-2.578 -7.35,-6 l -6.15,0 c -0.828,0 -1.5,-0.672 -1.5,-1.5 0,-0.828 0.672,-1.5 1.5,-1.5 l 6.15,0 z m 7.35,6 c -2.481,0 -4.5,-2.019 -4.5,-4.5 0,-2.481 2.019,-4.5 4.5,-4.5 2.481,0 4.5,2.019 4.5,4.5 0,2.481 -2.019,4.5 -4.5,4.5 z"
       style="fill:#2fd566;fill-opacity:1"
       id="path5029"
       inkscape:connector-curvature="0" /></g></svg>