<?xml version="1.0" encoding="UTF-8" standalone="no"?>
<svg
   xmlns:dc="http://purl.org/dc/elements/1.1/"
   xmlns:cc="http://creativecommons.org/ns#"
   xmlns:rdf="http://www.w3.org/1999/02/22-rdf-syntax-ns#"
   xmlns:svg="http://www.w3.org/2000/svg"
   xmlns="http://www.w3.org/2000/svg"
   xmlns:sodipodi="http://sodipodi.sourceforge.net/DTD/sodipodi-0.dtd"
   xmlns:inkscape="http://www.inkscape.org/namespaces/inkscape"
   version="1.1"
   x="0px"
   y="0px"
   viewBox="0 0 50.000001 50.000001"
   enable-background="new 0 0 54.85 56"
   xml:space="preserve"
   id="svg2"
   inkscape:version="0.91 r13725"
   sodipodi:docname="notificacion-8.svg"
   width="50"
   height="50"><metadata
     id="metadata18"><rdf:RDF><cc:Work
         rdf:about=""><dc:format>image/svg+xml</dc:format><dc:type
           rdf:resource="http://purl.org/dc/dcmitype/StillImage" /><dc:title></dc:title></cc:Work></rdf:RDF></metadata><defs
     id="defs16"><linearGradient
       gradientUnits="userSpaceOnUse"
       gradientTransform="scale(1.000006,0.99999405)"
       y2="1322.8475"
       x2="647.1709"
       y1="1017.2354"
       x1="1186.48"
       id="lgrad"><stop
         id="stop14298"
         style="stop-color:#000000;stop-opacity:0"
         offset="0%" /><stop
         id="stop14300"
         style="stop-color:rgb(52,168,83);stop-opacity:1"
         offset="40%" /><stop
         id="stop14302"
         style="stop-color:rgb(251,188,5);stop-opacity:1"
         offset="60%" /><stop
         id="stop14304"
         style="stop-color:rgb(234,67,53);stop-opacity:1"
         offset="100%" /></linearGradient></defs><sodipodi:namedview
     pagecolor="#ffffff"
     bordercolor="#666666"
     borderopacity="1"
     objecttolerance="10"
     gridtolerance="10"
     guidetolerance="10"
     inkscape:pageopacity="0"
     inkscape:pageshadow="2"
     inkscape:window-width="1426"
     inkscape:window-height="863"
     id="namedview14"
     showgrid="false"
     inkscape:zoom="5.6568542"
     inkscape:cx="45.821534"
     inkscape:cy="52.321586"
     inkscape:window-x="19"
     inkscape:window-y="0"
     inkscape:window-maximized="0"
     inkscape:current-layer="g4162"
     fit-margin-top="0"
     fit-margin-left="0"
     fit-margin-right="0"
     fit-margin-bottom="0"
     showguides="false" /><g
     id="g4628"
     transform="matrix(0.04925163,0,0,0.04925163,-1.4478999,-51.447908)"><g
       id="g4162"
       transform="matrix(1.0023893,0,0,1.0023893,-13.686903,-143.45303)"><g
         id="g4729"
         transform="matrix(0.49999999,0,0,0.49999999,21.49108,1098.9947)"><circle
           r="862.91559"
           cy="1116.5684"
           cx="1003.0734"
           id="path4320"
           style="fill:#2fd566;fill-opacity:1;stroke:#ffffff;stroke-width:0;stroke-linejoin:round;stroke-miterlimit:4;stroke-dasharray:none" /><g
           id="g4892"
           transform="matrix(20.303897,0,0,20.303897,-1592.339,537.52284)"
           style="fill:#ffffff"><path
             inkscape:connector-curvature="0"
             d="m 127.82819,-17.98097 c -24.9,0 -44.999999,20.1000001 -44.999999,45 0,24.9 20.099999,45 44.999999,45 24.9,0 45,-20.1 45,-45 0,-24.8999999 -20.2,-45 -45,-45 z m 26,74 c -2.5,-4 -6.3,-6.9 -10.8,-8.2 l -5.8,-1.7 c -2,-0.6 -3,-2.7 -2.4,-4.7 0.1,-0.4 0.4,-0.8 0.6,-1.1 l 4.2,-4.7 c 2.8,-3.1 4.1,-7.3 3.6,-11.4 l -0.7,-5.7 c -0.5,-4.3 -2.9,-8.2 -6.6,-10.5999999 l -0.1,0 c -4.9,-3.1 -11.2,-3.1 -16.1,0.2 l 0,0 c -3.4,2.2999999 -5.6,5.7999999 -6.2,9.7999999 l -0.9,6 c -0.7,4.3 0.6,8.7 3.5,12 l 4,4.4 c 0.3,0.3 0.5,0.7 0.6,1.1 0.7,1.9 -0.4,4.1 -2.4,4.7 l -5.8,1.7 c -4.5,1.3 -8.3,4.3 -10.8,8.2 -7.999999,-7.1 -12.999999,-17.5 -12.999999,-29 0,-21.4999999 17.499999,-39 38.999999,-39 21.5,0 39,17.5000001 39,39 0.1,11.5 -5,21.9 -12.9,29 z"
             id="path4894"
             style="fill:#ffffff" /></g><circle
           r="478.05469"
           cy="1679.3267"
           cx="1503.4561"
           id="path4320-0"
           style="fill:#ff0000;fill-opacity:1;stroke:#ffffff;stroke-width:81.2155838;stroke-linejoin:round;stroke-miterlimit:4;stroke-dasharray:none" /><text
           transform="scale(0.99400881,1.0060273)"
           sodipodi:linespacing="125%"
           id="text4322"
           y="2000.5271"
           x="1244.827"
           style="font-style:normal;font-weight:normal;font-size:205.4813385px;line-height:125%;font-family:sans-serif;letter-spacing:0px;word-spacing:0px;fill:#ffffff;fill-opacity:1;stroke:none;stroke-width:1px;stroke-linecap:butt;stroke-linejoin:miter;stroke-opacity:1"
           xml:space="preserve"><tspan
             style="font-style:normal;font-variant:normal;font-weight:normal;font-stretch:normal;font-size:924.66589355px;font-family:Lato;-inkscape-font-specification:Lato;fill:#ffffff;fill-opacity:1"
             y="2000.5271"
             x="1244.827"
             id="tspan4324"
             sodipodi:role="line">8</tspan></text>
</g></g></g></svg>