<?xml version="1.0" encoding="UTF-8" standalone="no"?>
<svg
   xmlns:dc="http://purl.org/dc/elements/1.1/"
   xmlns:cc="http://creativecommons.org/ns#"
   xmlns:rdf="http://www.w3.org/1999/02/22-rdf-syntax-ns#"
   xmlns:svg="http://www.w3.org/2000/svg"
   xmlns="http://www.w3.org/2000/svg"
   xmlns:sodipodi="http://sodipodi.sourceforge.net/DTD/sodipodi-0.dtd"
   xmlns:inkscape="http://www.inkscape.org/namespaces/inkscape"
   version="1.2"
   x="0px"
   y="0px"
   viewBox="0 0 30 29.999666"
   xml:space="preserve"
   id="svg2"
   inkscape:version="0.91 r13725"
   sodipodi:docname="preferencias_normal.svg"
   width="30"
   height="29.999666"><metadata
     id="metadata14"><rdf:RDF><cc:Work
         rdf:about=""><dc:format>image/svg+xml</dc:format><dc:type
           rdf:resource="http://purl.org/dc/dcmitype/StillImage" /><dc:title></dc:title></cc:Work></rdf:RDF></metadata><defs
     id="defs12"><linearGradient
       gradientUnits="userSpaceOnUse"
       gradientTransform="scale(1.000006,0.99999405)"
       y2="1322.8475"
       x2="647.1709"
       y1="1017.2354"
       x1="1186.48"
       id="lgrad"><stop
         id="stop14298"
         style="stop-color:#000000;stop-opacity:0"
         offset="0%" /><stop
         id="stop14300"
         style="stop-color:rgb(52,168,83);stop-opacity:1"
         offset="40%" /><stop
         id="stop14302"
         style="stop-color:rgb(251,188,5);stop-opacity:1"
         offset="60%" /><stop
         id="stop14304"
         style="stop-color:rgb(234,67,53);stop-opacity:1"
         offset="100%" /></linearGradient></defs><sodipodi:namedview
     pagecolor="#ffffff"
     bordercolor="#666666"
     borderopacity="1"
     objecttolerance="10"
     gridtolerance="10"
     guidetolerance="10"
     inkscape:pageopacity="0"
     inkscape:pageshadow="2"
     inkscape:window-width="1440"
     inkscape:window-height="837"
     id="namedview10"
     showgrid="false"
     fit-margin-top="0"
     fit-margin-left="0"
     fit-margin-right="0"
     fit-margin-bottom="0"
     inkscape:zoom="1"
     inkscape:cx="-119.9498"
     inkscape:cy="9.999776"
     inkscape:window-x="-8"
     inkscape:window-y="-8"
     inkscape:window-maximized="1"
     inkscape:current-layer="svg2" /><g
     id="g3342"
     transform="matrix(0.33333333,0,0,0.33333333,-1.6666665,-1.6666667)"
     style="fill:#2fd566;fill-opacity:1"><path
       id="path4"
       d="m 92.5,40 -8.959,0 C 82.855,37.691 81.934,35.467 80.79,33.354 l 6.334,-6.335 c 0.976,-0.977 0.976,-2.56 0,-3.535 L 76.516,12.877 c -0.976,-0.977 -2.56,-0.977 -3.535,0 l -6.334,6.334 C 64.532,18.066 62.308,17.146 60,16.46 L 60,7.5 C 60,6.119 58.881,5 57.5,5 l -15,0 C 41.119,5 40,6.119 40,7.5 l 0,8.96 c -2.308,0.686 -4.532,1.606 -6.647,2.751 l -6.334,-6.334 c -0.976,-0.977 -2.56,-0.977 -3.535,0 L 12.877,23.483 c -0.977,0.976 -0.977,2.559 0,3.535 l 6.334,6.335 c -1.145,2.113 -2.065,4.338 -2.751,6.646 l -8.96,0 C 6.119,40 5,41.119 5,42.5 l 0,15 C 5,58.881 6.119,60 7.5,60 l 8.959,0 c 0.686,2.309 1.607,4.533 2.751,6.646 l -6.334,6.335 c -0.976,0.977 -0.976,2.56 0,3.535 l 10.607,10.606 c 0.976,0.977 2.56,0.977 3.535,0 l 6.334,-6.334 c 2.115,1.145 4.339,2.065 6.647,2.751 l 0,8.96 c 0,1.381 1.119,2.5 2.5,2.5 l 15,0 c 1.381,0 2.5,-1.119 2.5,-2.5 l 0,-8.96 c 2.308,-0.686 4.532,-1.606 6.647,-2.751 l 6.334,6.334 c 0.976,0.977 2.56,0.977 3.535,0 L 87.122,76.516 c 0.977,-0.976 0.977,-2.559 0,-3.535 L 80.788,66.646 C 81.933,64.533 82.853,62.308 83.539,60 l 8.961,0 c 1.381,0 2.5,-1.119 2.5,-2.5 l 0,-15 C 95,41.119 93.881,40 92.5,40 Z M 25.251,81.82 18.18,74.749 24.104,68.824 c 0.001,-0.001 0.002,-0.002 0.003,-0.003 L 35.296,57.633 C 35.979,56.95 36.208,55.936 35.883,55.027 35.297,53.381 35,51.689 35,50 c 0,-8.271 6.729,-15 15,-15 1.719,0 3.423,0.301 5.038,0.883 l -6.322,3.649 c -0.777,0.448 -1.254,1.279 -1.25,2.176 l 0.037,8.3 c 0.004,0.886 0.476,1.703 1.24,2.148 l 7.169,4.182 c 0.774,0.453 1.732,0.455 2.51,0.006 l 6.337,-3.659 C 63.49,59.68 57.355,65 50,65 48.312,65 46.621,64.703 44.974,64.116 44.062,63.791 43.05,64.02 42.368,64.704 L 25.251,81.82 Z M 90,55 81.621,55 c -1.159,0 -2.167,0.797 -2.433,1.925 -0.739,3.128 -1.967,6.095 -3.65,8.817 -0.61,0.986 -0.461,2.263 0.358,3.082 l 5.924,5.925 -7.071,7.071 -5.924,-5.924 c -0.818,-0.819 -2.093,-0.969 -3.082,-0.359 -2.725,1.684 -5.692,2.911 -8.818,3.65 C 55.797,79.454 55,80.461 55,81.62 l 0,8.38 -10,0 0,-8.38 c 0,-1.159 -0.797,-2.166 -1.925,-2.433 -2.078,-0.491 -4.076,-1.218 -5.989,-2.131 l 7.749,-7.749 C 46.534,69.768 48.266,70 50,70 61.028,70 70,61.028 70,50 70,49.871 69.993,49.743 69.984,49.616 L 69.979,49.51 c -0.053,-1.171 -0.699,-2.207 -1.728,-2.771 -1.026,-0.563 -2.242,-0.548 -3.255,0.036 l -7.817,4.513 -4.682,-2.73 -0.024,-5.421 7.816,-4.513 c 1,-0.576 1.62,-1.61 1.657,-2.764 C 61.984,34.7 61.43,33.623 60.465,32.979 60.436,32.959 60.407,32.941 60.377,32.922 57.235,31.011 53.647,30 50,30 38.972,30 30,38.972 30,50 c 0,1.736 0.232,3.468 0.692,5.166 l -7.749,7.748 C 22.03,61.002 21.303,59.003 20.812,56.925 20.546,55.797 19.539,55 18.379,55 L 10,55 l 0,-10 8.379,0 c 1.159,0 2.167,-0.797 2.433,-1.925 0.739,-3.128 1.967,-6.095 3.65,-8.817 0.61,-0.986 0.461,-2.263 -0.358,-3.082 l -5.924,-5.925 7.071,-7.071 5.924,5.924 c 0.819,0.819 2.094,0.97 3.082,0.359 2.725,-1.684 5.692,-2.911 8.818,-3.65 C 44.203,20.546 45,19.539 45,18.38 l 0,-8.38 10,0 0,8.38 c 0,1.159 0.797,2.166 1.925,2.433 3.126,0.739 6.093,1.967 8.818,3.65 0.988,0.61 2.264,0.46 3.082,-0.359 l 5.924,-5.924 7.071,7.071 -5.924,5.925 c -0.819,0.819 -0.968,2.096 -0.358,3.082 1.683,2.723 2.911,5.689 3.65,8.817 C 79.454,44.203 80.461,45 81.621,45 L 90,45 90,55 Z"
       inkscape:connector-curvature="0"
       style="fill:#2fd566;fill-opacity:1" /></g></svg>