<?xml version="1.0" encoding="UTF-8" standalone="no"?>
<svg
   xmlns:dc="http://purl.org/dc/elements/1.1/"
   xmlns:cc="http://creativecommons.org/ns#"
   xmlns:rdf="http://www.w3.org/1999/02/22-rdf-syntax-ns#"
   xmlns:svg="http://www.w3.org/2000/svg"
   xmlns="http://www.w3.org/2000/svg"
   xmlns:sodipodi="http://sodipodi.sourceforge.net/DTD/sodipodi-0.dtd"
   xmlns:inkscape="http://www.inkscape.org/namespaces/inkscape"
   version="1.1"
   x="0px"
   y="0px"
   viewBox="0 0 5250.0002 5250"
   enable-background="new 0 0 54.85 56"
   xml:space="preserve"
   id="svg2"
   inkscape:version="0.91 r13725"
   sodipodi:docname="bedelia.svg"
   width="5250"
   height="5250"><metadata
     id="metadata18"><rdf:RDF><cc:Work
         rdf:about=""><dc:format>image/svg+xml</dc:format><dc:type
           rdf:resource="http://purl.org/dc/dcmitype/StillImage" /><dc:title></dc:title></cc:Work></rdf:RDF></metadata><defs
     id="defs16"><linearGradient
       gradientUnits="userSpaceOnUse"
       gradientTransform="scale(1.000006,0.99999405)"
       y2="1322.8475"
       x2="647.1709"
       y1="1017.2354"
       x1="1186.48"
       id="lgrad"><stop
         id="stop14298"
         style="stop-color:#000000;stop-opacity:0"
         offset="0%" /><stop
         id="stop14300"
         style="stop-color:rgb(52,168,83);stop-opacity:1"
         offset="40%" /><stop
         id="stop14302"
         style="stop-color:rgb(251,188,5);stop-opacity:1"
         offset="60%" /><stop
         id="stop14304"
         style="stop-color:rgb(234,67,53);stop-opacity:1"
         offset="100%" /></linearGradient></defs><sodipodi:namedview
     pagecolor="#ffffff"
     bordercolor="#666666"
     borderopacity="1"
     objecttolerance="10"
     gridtolerance="10"
     guidetolerance="10"
     inkscape:pageopacity="0"
     inkscape:pageshadow="2"
     inkscape:window-width="1443"
     inkscape:window-height="858"
     id="namedview14"
     showgrid="false"
     inkscape:zoom="0.10535714"
     inkscape:cx="1339.1828"
     inkscape:cy="2596.3448"
     inkscape:window-x="0"
     inkscape:window-y="0"
     inkscape:window-maximized="0"
     inkscape:current-layer="svg2" /><g
     id="g4318"
     transform="matrix(91.157703,0,0,91.157703,125,73.040105)"><path
       sodipodi:nodetypes="cscscssscsssc"
       d="m 50.692258,44.361828 c -0.423043,-3.997658 -3.787712,-7.13937 -7.821379,-7.13937 -2.518583,0 -4.89943,1.254739 -6.375162,3.307065 -0.285308,-0.04863 -0.580455,-0.07781 -0.865763,-0.07781 -2.282465,0 -4.309137,1.536812 -4.987974,3.705858 -1.879098,1.09911 -3.069522,3.151436 -3.069522,5.349662 0,3.414058 2.744861,6.186157 6.10953,6.186157 l 10.595755,0 c 0.05903,0 0.118059,0 0.16725,-0.0097 0.05903,0 0.118058,0.0097 0.186926,0.0097 l 4.240269,0 c 3.167905,0 5.755355,-2.616472 5.755355,-5.826271 0,-2.509479 -1.613467,-4.727158 -3.935285,-5.505291 z"
       id="path6-2"
       style="fill:#8dd35f;fill-opacity:1"
       inkscape:connector-curvature="0" /><path
       d="M 50.85,44.34 C 50.42,40.23 47,37 42.9,37 c -2.56,0 -4.98,1.29 -6.48,3.4 -0.29,-0.05 -0.59,-0.08 -0.88,-0.08 -2.32,0 -4.38,1.58 -5.07,3.81 -1.91,1.13 -3.12,3.24 -3.12,5.5 0,3.51 2.79,6.36 6.21,6.36 l 10.77,0 c 0.06,0 0.12,0 0.17,-0.01 0.06,0 0.12,0.01 0.19,0.01 l 4.31,0 c 3.22,0 5.85,-2.69 5.85,-5.99 0,-2.58 -1.64,-4.86 -4,-5.66 z M 49,54 l -4.35,0 -0.17,0 -10.92,0 c -2.32,0 -4.21,-1.96 -4.21,-4.36 0,-1.67 0.95,-3.21 2.42,-3.93 l 0.43,-0.21 0.1,-0.47 c 0.33,-1.56 1.69,-2.69 3.23,-2.69 0.34,0 0.69,0.06 1.02,0.17 l 0.78,0.26 0.41,-0.71 c 1.1,-1.91 3.02,-3.04 5.16,-3.04 3.26,0 5.96,2.75 6,6.12 l 0.01,0.81 0.8,0.16 c 1.82,0.35 3.15,2 3.15,3.92 C 52.85,52.21 51.12,54 49,54 Z"
       id="path6"
       style="fill:#232323;fill-opacity:1"
       inkscape:connector-curvature="0" /><path
       d="m 25,41 c -0.83,0 -1.64,-0.02 -2.43,-0.04 -0.49,-0.02 -0.96,-0.05 -1.43,-0.08 -0.29,-0.02 -0.59,-0.03 -0.88,-0.05 -0.63,-0.05 -1.24,-0.1 -1.85,-0.17 -0.11,-0.01 -0.23,-0.02 -0.35,-0.03 -0.69,-0.08 -1.37,-0.16 -2.03,-0.26 -0.02,0 -0.03,0 -0.05,-0.01 C 12.59,39.86 9.69,39.1 7.42,38.19 7.41,38.19 7.4,38.18 7.38,38.18 6.96,38.01 6.57,37.84 6.19,37.66 6.15,37.64 6.1,37.62 6.06,37.6 5.72,37.44 5.41,37.27 5.12,37.1 5.05,37.06 4.98,37.02 4.91,36.98 4.65,36.83 4.42,36.67 4.19,36.52 4.1,36.46 4.01,36.4 3.93,36.34 3.74,36.2 3.57,36.06 3.4,35.91 3.31,35.83 3.22,35.75 3.14,35.67 3.01,35.54 2.89,35.41 2.78,35.28 2.7,35.19 2.63,35.1 2.56,35 2.47,34.88 2.4,34.75 2.33,34.63 2.28,34.53 2.23,34.43 2.19,34.33 2.14,34.21 2.1,34.09 2.07,33.97 2.04,33.82 2,33.66 2,33.5 l 0,-8.21 c 0.03,0.03 0.06,0.05 0.09,0.08 0.22,0.19 0.44,0.38 0.69,0.57 C 6.55,28.79 14.08,31 25,31 c 10.87,0 18.39,-2.2 22.17,-5.03 0.3,-0.22 0.57,-0.45 0.83,-0.68 0,0 0,0 0,0 L 48,34 c 0,0.55 0.45,1 1,1 0.55,0 1,-0.45 1,-1 L 50,22 50,21.5 50,9.5 50,9 C 50,8.83 49.94,8.68 49.86,8.54 48.74,4.24 40.12,0 25,0 9.92,0 1.3,4.22 0.15,8.51 0.06,8.66 0,8.82 0,9 l 0,0.5 0,12 0,0.5 0,11.5 0,0.5 0,12 c 0,0.16 0.04,0.31 0.12,0.45 1.14,4.83 10.69,7.68 19.81,8.36 0.03,0 0.05,0 0.08,0 0.52,0 0.96,-0.4 1,-0.92 0.04,-0.55 -0.37,-1.03 -0.92,-1.07 C 8.96,51.98 2.48,48.6 2.03,45.84 2.02,45.79 2.01,45.75 2,45.71 L 2,37.3 c 0.03,0.03 0.06,0.05 0.09,0.08 0.22,0.19 0.44,0.38 0.69,0.57 C 6.55,40.79 14.08,43 25,43 c 0.55,0 1,-0.45 1,-1 0,-0.55 -0.45,-1 -1,-1 z M 2.6,13.8 c 0.3,0.24 0.62,0.47 0.98,0.7 0.07,0.05 0.16,0.09 0.23,0.14 0.29,0.18 0.6,0.36 0.93,0.54 0.12,0.06 0.24,0.13 0.37,0.19 0.37,0.19 0.75,0.37 1.15,0.54 0.07,0.03 0.13,0.06 0.19,0.09 0.47,0.2 0.97,0.39 1.49,0.57 0.14,0.05 0.29,0.1 0.44,0.15 0.41,0.14 0.84,0.27 1.28,0.4 0.16,0.05 0.31,0.09 0.48,0.14 0.58,0.16 1.19,0.32 1.82,0.46 0.09,0.02 0.18,0.04 0.27,0.06 0.56,0.12 1.14,0.23 1.74,0.34 0.2,0.04 0.41,0.07 0.61,0.1 0.57,0.09 1.15,0.18 1.75,0.26 0.15,0.02 0.3,0.04 0.46,0.06 0.74,0.09 1.51,0.17 2.3,0.23 0.2,0.02 0.4,0.03 0.6,0.04 0.63,0.05 1.28,0.08 1.94,0.11 0.24,0.01 0.48,0.02 0.73,0.03 0.85,0.03 1.73,0.05 2.64,0.05 0.91,0 1.79,-0.02 2.65,-0.05 0.25,-0.01 0.49,-0.02 0.73,-0.03 0.66,-0.03 1.31,-0.07 1.94,-0.11 0.2,-0.01 0.4,-0.03 0.6,-0.04 0.79,-0.07 1.56,-0.14 2.3,-0.23 0.16,-0.02 0.3,-0.04 0.46,-0.06 0.6,-0.08 1.18,-0.16 1.75,-0.26 0.21,-0.03 0.41,-0.07 0.61,-0.1 0.6,-0.11 1.18,-0.22 1.74,-0.34 0.09,-0.02 0.18,-0.04 0.27,-0.06 0.63,-0.14 1.24,-0.3 1.82,-0.46 0.16,-0.04 0.32,-0.09 0.48,-0.14 0.44,-0.13 0.87,-0.26 1.28,-0.4 0.15,-0.05 0.3,-0.1 0.44,-0.15 0.52,-0.18 1.02,-0.37 1.49,-0.57 0.07,-0.03 0.13,-0.06 0.19,-0.09 0.4,-0.18 0.79,-0.36 1.15,-0.54 0.13,-0.06 0.25,-0.13 0.37,-0.19 0.33,-0.18 0.64,-0.35 0.93,-0.54 0.08,-0.05 0.16,-0.09 0.23,-0.14 0.35,-0.23 0.67,-0.46 0.98,-0.7 0.08,-0.06 0.14,-0.12 0.21,-0.18 0.13,-0.11 0.27,-0.21 0.39,-0.32 l 0,8.21 c 0,0.16 -0.04,0.32 -0.08,0.49 -0.03,0.12 -0.07,0.24 -0.12,0.36 -0.04,0.1 -0.09,0.2 -0.14,0.3 -0.07,0.12 -0.14,0.25 -0.23,0.37 -0.07,0.09 -0.14,0.18 -0.22,0.28 -0.11,0.13 -0.23,0.26 -0.36,0.39 -0.08,0.08 -0.17,0.16 -0.26,0.24 -0.16,0.14 -0.34,0.29 -0.53,0.43 -0.08,0.06 -0.17,0.12 -0.26,0.18 -0.23,0.16 -0.46,0.31 -0.72,0.46 -0.07,0.04 -0.14,0.08 -0.21,0.12 -0.3,0.17 -0.61,0.33 -0.94,0.5 -0.04,0.02 -0.09,0.04 -0.13,0.06 -0.37,0.18 -0.77,0.35 -1.19,0.52 -0.01,0 -0.02,0.01 -0.04,0.01 -2.27,0.91 -5.18,1.67 -8.56,2.17 -0.02,0 -0.03,0 -0.05,0.01 -0.66,0.1 -1.33,0.18 -2.03,0.26 -0.11,0.01 -0.23,0.02 -0.35,0.03 -0.61,0.06 -1.22,0.12 -1.85,0.17 -0.29,0.02 -0.59,0.03 -0.88,0.05 -0.47,0.03 -0.94,0.06 -1.43,0.08 C 26.64,28.98 25.83,29 25,29 c -0.83,0 -1.64,-0.02 -2.43,-0.04 -0.49,-0.02 -0.96,-0.05 -1.43,-0.08 -0.29,-0.02 -0.59,-0.03 -0.88,-0.05 -0.63,-0.05 -1.24,-0.1 -1.85,-0.17 -0.11,-0.01 -0.23,-0.02 -0.35,-0.03 -0.69,-0.08 -1.37,-0.16 -2.03,-0.26 -0.02,0 -0.03,0 -0.05,-0.01 C 12.59,27.86 9.69,27.1 7.42,26.19 7.41,26.19 7.4,26.18 7.38,26.18 6.96,26.01 6.57,25.84 6.19,25.66 6.15,25.64 6.1,25.62 6.06,25.6 5.72,25.44 5.41,25.27 5.12,25.1 5.05,25.06 4.98,25.02 4.91,24.98 4.65,24.83 4.42,24.67 4.19,24.52 4.1,24.46 4.01,24.4 3.93,24.34 3.74,24.2 3.57,24.06 3.4,23.91 3.31,23.83 3.22,23.75 3.14,23.67 3.01,23.54 2.89,23.41 2.78,23.28 2.7,23.19 2.63,23.1 2.56,23 2.47,22.88 2.4,22.75 2.33,22.63 2.28,22.53 2.23,22.43 2.19,22.33 2.14,22.21 2.1,22.09 2.07,21.97 2.04,21.82 2,21.66 2,21.5 l 0,-8.21 c 0.12,0.11 0.26,0.22 0.39,0.32 0.07,0.07 0.14,0.13 0.21,0.19 z M 25,2 C 38.55,2 48,5.95 48,9.5 48,13.05 38.55,17 25,17 11.45,17 2,13.05 2,9.5 2,5.95 11.45,2 25,2 Z"
       id="path8"
       style="fill:#232323;fill-opacity:1"
       inkscape:connector-curvature="0" /></g></svg>