<?xml version="1.0" encoding="UTF-8" standalone="no"?>
<svg
   xmlns:dc="http://purl.org/dc/elements/1.1/"
   xmlns:cc="http://creativecommons.org/ns#"
   xmlns:rdf="http://www.w3.org/1999/02/22-rdf-syntax-ns#"
   xmlns:svg="http://www.w3.org/2000/svg"
   xmlns="http://www.w3.org/2000/svg"
   xmlns:sodipodi="http://sodipodi.sourceforge.net/DTD/sodipodi-0.dtd"
   xmlns:inkscape="http://www.inkscape.org/namespaces/inkscape"
   version="1.1"
   x="0px"
   y="0px"
   viewBox="0 0 5250.0002 5250"
   enable-background="new 0 0 54.85 56"
   xml:space="preserve"
   id="svg2"
   inkscape:version="0.91 r13725"
   sodipodi:docname="bedeliaNegro.svg"
   width="5250"
   height="5250"><metadata
     id="metadata18"><rdf:RDF><cc:Work
         rdf:about=""><dc:format>image/svg+xml</dc:format><dc:type
           rdf:resource="http://purl.org/dc/dcmitype/StillImage" /><dc:title></dc:title></cc:Work></rdf:RDF></metadata><defs
     id="defs16"><linearGradient
       gradientUnits="userSpaceOnUse"
       gradientTransform="scale(1.000006,0.99999405)"
       y2="1322.8475"
       x2="647.1709"
       y1="1017.2354"
       x1="1186.48"
       id="lgrad"><stop
         id="stop14298"
         style="stop-color:#000000;stop-opacity:0"
         offset="0%" /><stop
         id="stop14300"
         style="stop-color:rgb(52,168,83);stop-opacity:1"
         offset="40%" /><stop
         id="stop14302"
         style="stop-color:rgb(251,188,5);stop-opacity:1"
         offset="60%" /><stop
         id="stop14304"
         style="stop-color:rgb(234,67,53);stop-opacity:1"
         offset="100%" /></linearGradient></defs><sodipodi:namedview
     pagecolor="#ffffff"
     bordercolor="#666666"
     borderopacity="1"
     objecttolerance="10"
     gridtolerance="10"
     guidetolerance="10"
     inkscape:pageopacity="0"
     inkscape:pageshadow="2"
     inkscape:window-width="1440"
     inkscape:window-height="856"
     id="namedview14"
     showgrid="false"
     inkscape:zoom="0.11"
     inkscape:cx="2066.4555"
     inkscape:cy="2884.6011"
     inkscape:window-x="20"
     inkscape:window-y="1"
     inkscape:window-maximized="0"
     inkscape:current-layer="svg2" /><rect
     style="fill:#232323;fill-opacity:1;stroke:none;stroke-width:1.5;stroke-linejoin:round;stroke-miterlimit:4;stroke-dasharray:none;stroke-opacity:0.00392157"
     id="rect5698"
     width="5250"
     height="5250"
     x="0"
     y="0" /><g
     id="g4407"
     style="fill:#ffff00"
     transform="translate(-67.962123,14.237264)"><rect
       y="646.61017"
       x="465.08475"
       height="3882.0339"
       width="3957.9661"
       id="rect4373"
       style="fill:#232323;fill-opacity:1;stroke:none;stroke-width:1.5;stroke-linejoin:round;stroke-miterlimit:4;stroke-dasharray:none;stroke-opacity:0.00392157" /><rect
       y="4262.8813"
       x="787.79663"
       height="455.59326"
       width="1347.7966"
       id="rect4375"
       style="fill:#232323;fill-opacity:1;stroke:none;stroke-width:1.5;stroke-linejoin:round;stroke-miterlimit:4;stroke-dasharray:none;stroke-opacity:0.00392157" /><rect
       y="665.59326"
       x="332.2034"
       height="3796.6104"
       width="455.59323"
       id="rect4377"
       style="fill:#232323;fill-opacity:1;stroke:none;stroke-width:1.5;stroke-linejoin:round;stroke-miterlimit:4;stroke-dasharray:none;stroke-opacity:0.00392157" /><rect
       y="4405.2539"
       x="1205.4237"
       height="436.61017"
       width="607.45764"
       id="rect4379"
       style="fill:#232323;fill-opacity:1;stroke:none;stroke-width:1.5;stroke-linejoin:round;stroke-miterlimit:4;stroke-dasharray:none;stroke-opacity:0.00392157" /><rect
       y="4300.8477"
       x="616.94916"
       height="322.71185"
       width="284.74576"
       id="rect4381"
       style="fill:#232323;fill-opacity:1;stroke:none;stroke-width:1.5;stroke-linejoin:round;stroke-miterlimit:4;stroke-dasharray:none;stroke-opacity:0.00392157" /><rect
       y="4671.0171"
       x="1091.5254"
       height="142.37288"
       width="227.79662"
       id="rect4383"
       style="fill:#232323;fill-opacity:1;stroke:none;stroke-width:1.5;stroke-linejoin:round;stroke-miterlimit:4;stroke-dasharray:none;stroke-opacity:0.00392157" /><rect
       y="485.25424"
       x="654.91522"
       height="227.79662"
       width="1157.9661"
       id="rect4385"
       style="fill:#232323;fill-opacity:1;stroke:none;stroke-width:1.5;stroke-linejoin:round;stroke-miterlimit:4;stroke-dasharray:none;stroke-opacity:0.00392157" /><rect
       y="210.00002"
       x="1642.0339"
       height="730.84747"
       width="1993.2205"
       id="rect4387"
       style="fill:#232323;fill-opacity:1;stroke:none;stroke-width:1.5;stroke-linejoin:round;stroke-miterlimit:4;stroke-dasharray:none;stroke-opacity:0.00392157" /><rect
       y="361.86441"
       x="3540.3389"
       height="436.61017"
       width="531.52545"
       id="rect4389"
       style="fill:#232323;fill-opacity:1;stroke:none;stroke-width:1.5;stroke-linejoin:round;stroke-miterlimit:4;stroke-dasharray:none;stroke-opacity:0.00392157" /><rect
       y="599.15253"
       x="3901.0168"
       height="161.35593"
       width="322.71185"
       id="rect4391"
       style="fill:#232323;fill-opacity:1;stroke:none;stroke-width:1.5;stroke-linejoin:round;stroke-miterlimit:4;stroke-dasharray:none;stroke-opacity:0.00392157" /><rect
       y="466.27121"
       x="4043.3899"
       height="189.83051"
       width="151.86441"
       id="rect4393"
       style="fill:#232323;fill-opacity:1;stroke:none;stroke-width:1.5;stroke-linejoin:round;stroke-miterlimit:4;stroke-dasharray:none;stroke-opacity:0.00392157" /><rect
       y="200.50848"
       x="1243.3898"
       height="379.66101"
       width="683.38983"
       id="rect4395"
       style="fill:#232323;fill-opacity:1;stroke:none;stroke-width:1.5;stroke-linejoin:round;stroke-miterlimit:4;stroke-dasharray:none;stroke-opacity:0.00392157" /><rect
       y="304.91525"
       x="882.71185"
       height="303.72882"
       width="626.44067"
       id="rect4397"
       style="fill:#232323;fill-opacity:1;stroke:none;stroke-width:1.5;stroke-linejoin:round;stroke-miterlimit:4;stroke-dasharray:none;stroke-opacity:0.00392157" /><rect
       y="456.77966"
       x="635.93219"
       height="66.440681"
       width="379.66101"
       id="rect4399"
       style="fill:#232323;fill-opacity:1;stroke:none;stroke-width:1.5;stroke-linejoin:round;stroke-miterlimit:4;stroke-dasharray:none;stroke-opacity:0.00392157" /><rect
       y="561.18646"
       x="455.59323"
       height="170.84746"
       width="351.18643"
       id="rect4401"
       style="fill:#232323;fill-opacity:1;stroke:none;stroke-width:1.5;stroke-linejoin:round;stroke-miterlimit:4;stroke-dasharray:none;stroke-opacity:0.00392157" /><rect
       y="390.33899"
       x="816.27118"
       height="75.932205"
       width="94.915253"
       id="rect4403"
       style="fill:#232323;fill-opacity:1;stroke:none;stroke-width:1.5;stroke-linejoin:round;stroke-miterlimit:4;stroke-dasharray:none;stroke-opacity:0.00392157" /><rect
       y="475.76273"
       x="597.96613"
       height="140.26743"
       width="104.40678"
       id="rect4405"
       style="fill:#232323;fill-opacity:1;stroke:none;stroke-width:1.5;stroke-linejoin:round;stroke-miterlimit:4;stroke-dasharray:none;stroke-opacity:0.00392157" /></g><path
     inkscape:connector-curvature="0"
     style="fill:#ffffff;fill-opacity:1"
     id="path8"
     d="m 2283.7777,3786.7771 c -72.3522,0 -142.9609,-1.8231 -211.8261,-3.6463 -42.714,-1.8231 -83.6845,-4.5579 -124.6551,-7.2926 -25.2796,-1.8232 -51.431,-2.7347 -76.7106,-4.5579 -54.9179,-4.5579 -108.0924,-9.1158 -161.2669,-15.4968 -9.5888,-0.9116 -20.0494,-1.8231 -30.5099,-2.7347 -60.1481,-7.2926 -119.4246,-14.5853 -176.9576,-23.701 -1.7435,0 -2.6152,0 -4.3586,-0.9116 -295.5106,-45.5789 -548.3073,-114.8587 -746.1861,-197.8122 -0.8717,0 -1.7434,-0.9116 -3.4868,-0.9116 -36.612,-15.4968 -70.6088,-30.9936 -103.7339,-47.402 -3.4868,-1.8232 -7.8454,-3.6463 -11.3322,-5.4695 -29.6382,-14.5852 -56.6613,-30.082 -81.941,-45.5788 -6.102,-3.6463 -12.204,-7.2926 -18.306,-10.9389 -22.6645,-13.6737 -42.7139,-28.2589 -62.7633,-41.9326 -7.8454,-5.4694 -15.6908,-10.9389 -22.6645,-16.4084 -16.5625,-12.762 -31.3817,-25.5241 -46.2008,-39.1978 -7.8454,-7.2926 -15.6908,-14.5852 -22.6645,-21.8778 -11.3323,-11.8505 -21.7928,-23.701 -31.3817,-35.5515 -6.9737,-8.2042 -13.0756,-16.4084 -19.1776,-25.5242 -7.8454,-10.9389 -13.9474,-22.7894 -20.0494,-33.7283 -4.3586,-9.1158 -8.7171,-18.2316 -12.204,-27.3474 -4.3586,-10.9389 -7.8454,-21.8778 -10.4605,-32.8167 -2.6152,-13.6737 -6.102,-28.2589 -6.102,-42.8441 l 0,-748.4048 c 2.6151,2.7347 5.2302,4.5579 7.8454,7.2926 19.1776,17.32 38.3553,34.64 60.1481,51.9599 328.6357,259.7995 985.0354,461.258 1936.9456,461.258 947.5516,0 1603.0794,-200.5469 1932.5869,-458.5232 26.1514,-20.0547 49.6875,-41.021 72.352,-61.9873 0,0 0,0 0,0 l 0,793.9836 c 0,50.1367 39.2272,91.1577 87.1713,91.1577 47.9443,0 87.1712,-41.021 87.1712,-91.1577 l 0,-1093.8924 0,-45.5789 0,-1093.89241 0,-45.57885 c 0,-15.49681 -5.2301,-29.17046 -12.2038,-41.93254 C 4353.2234,435.81998 3601.8071,49.311311 2283.7777,49.311311 c -1314.5427,0 -2065.959,384.685509 -2166.206,775.752059 -7.8454,13.67365 -13.0757,28.25889 -13.0757,44.66727 l 0,45.57885 0,1093.89241 0,45.5789 0,1048.3136 0,45.5788 0,1093.8924 c 0,14.5853 3.4869,28.2589 10.4606,41.021 99.3752,440.2917 931.8609,700.0912 1726.8628,762.0784 2.6151,0 4.3585,0 6.9736,0 45.3291,0 83.6844,-36.4631 87.1713,-83.8651 3.4868,-50.1367 -32.2533,-93.8924 -80.1975,-97.5387 -970.2162,-76.5725 -1535.086,-384.6855 -1574.3131,-636.2808 -0.8717,-4.5579 -1.7434,-8.2042 -2.6151,-11.8505 l 0,-766.6363 c 2.6151,2.7348 5.2302,4.5579 7.8454,7.2926 19.1776,17.32 38.3553,34.64 60.1481,51.9599 328.6357,258.8879 985.0354,460.3464 1936.9456,460.3464 47.9442,0 87.1712,-41.0209 87.1712,-91.1577 0,-50.1367 -39.227,-91.1577 -87.1712,-91.1577 z M 331.1413,1307.2876 c 26.1514,21.8779 54.0462,42.8441 85.4279,63.8104 6.1019,4.5579 13.9474,8.2042 20.0493,12.7621 25.2797,16.4084 52.3028,32.8168 81.0693,49.2251 10.4606,5.4695 20.9211,11.8505 32.2534,17.32 32.2533,17.32 65.3784,33.7284 100.2469,49.2252 6.102,2.7347 11.3323,5.4694 16.5626,8.2042 40.9705,18.2315 84.5561,35.5515 129.8852,51.9598 12.2039,4.5579 25.2796,9.1158 38.3553,13.6737 35.7402,12.7621 73.2239,24.6126 111.5792,36.4631 13.9474,4.5579 27.0231,8.2042 41.8423,12.7621 50.5594,14.5852 103.7338,29.1704 158.6517,41.9325 7.8454,1.8232 15.6908,3.6463 23.5362,5.4695 48.8159,10.9389 99.3753,20.9662 151.678,30.9936 17.4343,3.6463 35.7403,6.381 53.1745,9.1158 49.6876,8.2041 100.247,16.4083 152.5497,23.701 13.0757,1.8231 26.1514,3.6463 40.0988,5.4694 64.5067,8.2042 131.6286,15.4968 200.4939,20.9663 17.4342,1.8231 34.8685,2.7347 52.3028,3.6463 54.9179,4.5579 111.5791,7.2926 169.1122,10.0273 20.9211,0.9116 41.8422,1.8232 63.6349,2.7348 74.0957,2.7347 150.8064,4.5579 230.1323,4.5579 79.3258,0 156.0365,-1.8232 231.0038,-4.5579 21.7928,-0.9116 42.7139,-1.8232 63.6351,-2.7348 57.5329,-2.7347 114.1943,-6.381 169.1122,-10.0273 17.4342,-0.9116 34.8684,-2.7347 52.3027,-3.6463 68.8653,-6.381 135.9872,-12.7621 200.494,-20.9663 13.9473,-1.8231 26.1513,-3.6463 40.0987,-5.4694 52.3029,-7.2927 102.8621,-14.5853 152.5497,-23.701 18.3059,-2.7348 35.7402,-6.3811 53.1745,-9.1158 52.3028,-10.0274 102.8621,-20.0547 151.678,-30.9936 7.8454,-1.8232 15.6908,-3.6463 23.5362,-5.4695 54.9179,-12.7621 108.0925,-27.3473 158.6517,-41.9325 13.9475,-3.6463 27.8949,-8.2042 41.8422,-12.7621 38.3554,-11.8505 75.839,-23.701 111.5792,-36.4631 13.0757,-4.5579 26.1514,-9.1158 38.3555,-13.6737 45.329,-16.4083 88.9146,-33.7283 129.885,-51.9598 6.1021,-2.7348 11.3323,-5.4695 16.5626,-8.2042 34.8685,-16.4084 68.8653,-32.8168 100.2471,-49.2252 11.3322,-5.4695 21.7927,-11.8505 32.2532,-17.32 28.7666,-16.4083 55.7896,-31.9052 81.0694,-49.2251 6.9737,-4.5579 13.9473,-8.2042 20.0493,-12.7621 30.5099,-20.9663 58.4047,-41.9325 85.4278,-63.8104 6.9737,-5.4695 12.2041,-10.9389 18.306,-16.4084 11.3323,-10.0273 23.5363,-19.1431 33.9968,-29.1704 l 0,748.4047 c 0,14.5852 -3.4868,29.1705 -6.9737,44.6673 -2.6151,10.9389 -6.1019,21.8778 -10.4606,32.8167 -3.4868,9.1158 -7.8454,18.2316 -12.2039,27.3474 -6.102,10.9389 -12.2041,22.7894 -20.0495,33.7283 -6.1019,8.2042 -12.2038,16.4084 -19.1776,25.5242 -9.5888,11.8505 -20.0493,23.701 -31.3816,35.5515 -6.9738,7.2926 -14.8191,14.5852 -22.6645,21.8778 -13.9475,12.7621 -29.6384,26.4357 -46.2008,39.1978 -6.9737,5.4695 -14.8191,10.939 -22.6645,16.4084 -20.0494,14.5852 -40.0989,28.2589 -62.7634,41.9326 -6.1019,3.6463 -12.204,7.2926 -18.306,10.9389 -26.1514,15.4968 -53.1744,30.082 -81.9409,45.5788 -3.4869,1.8232 -7.8454,3.6463 -11.3322,5.4695 -32.2535,16.4084 -67.122,31.9052 -103.7339,47.402 -0.8718,0 -1.7435,0.9116 -3.4868,0.9116 -197.8788,82.9535 -451.5472,152.2333 -746.186,197.8122 -1.7435,0 -2.6152,0 -4.3586,0.9116 -57.533,9.1157 -115.9378,16.4084 -176.9577,23.701 -9.5888,0.9116 -20.0494,1.8231 -30.51,2.7347 -53.1744,5.4695 -106.3489,10.9389 -161.2668,15.4968 -25.2796,1.8232 -51.4311,2.7347 -76.7107,4.5579 -40.9704,2.7347 -81.9409,5.4695 -124.6549,7.2926 -68.8653,-0.9116 -139.4739,0.9116 -211.8261,0.9116 -72.3522,0 -142.9609,-1.8232 -211.8261,-3.6463 -42.714,-1.8232 -83.6845,-4.5579 -124.6551,-7.2926 -25.2796,-1.8232 -51.431,-2.7348 -76.7106,-4.5579 -54.9179,-4.5579 -108.0924,-9.1158 -161.2669,-15.4968 -9.5888,-0.9116 -20.0494,-1.8232 -30.5099,-2.7348 -60.1481,-7.2926 -119.4246,-14.5852 -176.9576,-23.701 -1.7435,0 -2.6152,0 -4.3586,-0.9115 -295.5106,-45.5789 -548.3073,-114.8587 -746.1861,-197.8123 -0.8717,0 -1.7434,-0.9115 -3.4868,-0.9115 -36.612,-15.4968 -70.6088,-30.9936 -103.7339,-47.402 -3.4868,-1.8232 -7.8454,-3.6463 -11.3322,-5.4695 -29.6382,-14.5852 -56.6613,-30.082 -81.941,-45.5788 -6.102,-3.6464 -12.204,-7.2927 -18.306,-10.939 -22.6645,-13.6736 -42.7139,-28.2589 -62.7633,-41.9325 -7.8454,-5.4695 -15.6908,-10.9389 -22.6645,-16.4084 -16.5625,-12.7621 -31.3817,-25.5242 -46.2008,-39.1978 -7.8454,-7.2926 -15.6908,-14.5852 -22.6645,-21.8779 -11.3323,-11.8505 -21.7928,-23.701 -31.3817,-35.5515 -6.9737,-8.2042 -13.0756,-16.4084 -19.1776,-25.5241 -7.8454,-10.939 -13.9474,-22.7895 -20.0494,-33.7284 -4.3586,-9.1157 -8.7171,-18.2315 -12.204,-27.3473 -4.3586,-10.9389 -7.8454,-21.8778 -10.4605,-32.8168 -2.6152,-13.6736 -6.102,-28.2588 -6.102,-42.8441 l 0,-748.4047 c 10.4605,10.0273 22.6645,20.0547 33.9968,29.1704 6.1019,6.3811 12.2039,11.8505 18.3059,17.32 z M 2283.7777,231.62672 c 1181.1706,0 2004.9389,360.07293 2004.9389,683.68277 0,323.60981 -823.7683,683.68281 -2004.9389,683.68281 -1181.1707,0 -2004.9391,-360.073 -2004.9391,-683.68281 0,-323.60984 823.7684,-683.68277 2004.9391,-683.68277 z" /><g
     id="g4345"
     transform="matrix(1.4605714,0,0,1.4605714,-2339.9239,-2360.6308)"><path
       sodipodi:nodetypes="cscscssscsssc"
       d="m 4745.9898,4116.9624 c -38.5636,-364.4173 -345.2791,-650.8085 -712.9789,-650.8085 -229.5883,0 -446.6208,114.3791 -581.1452,301.4644 -26.008,-4.433 -52.9129,-7.093 -78.9209,-7.093 -208.0643,0 -392.8111,140.0923 -454.6923,337.8175 -171.2942,100.1924 -279.8106,287.2777 -279.8106,487.6629 0,311.2177 250.2153,563.9159 556.9308,563.9159 l 965.8846,0 c 5.3811,0 10.762,0 15.2462,-0.8842 5.381,0 10.7619,0.8842 17.0397,0.8842 l 386.5332,0 c 288.7789,0 524.6449,-238.5116 524.6449,-531.1095 0,-228.7583 -147.0799,-430.9168 -358.7315,-501.8497 z"
       id="path6-2"
       style="fill:#2fd566;fill-opacity:1"
       inkscape:connector-curvature="0" /><path
       d="m 4760.3692,4114.9727 c -39.1978,-374.6582 -350.9572,-669.0976 -724.7037,-669.0976 -233.3638,0 -453.9654,117.5935 -590.702,309.9362 -26.4357,-4.5579 -53.783,-7.2926 -80.2187,-7.2926 -211.4859,0 -399.2708,144.0292 -462.1696,347.3108 -174.1112,103.0082 -284.412,295.351 -284.412,501.3674 0,319.9635 254.33,579.763 566.0893,579.763 l 981.7685,0 c 5.4694,0 10.9389,0 15.4968,-0.9116 5.4694,0 10.9389,0.9116 17.3199,0.9116 l 392.8897,0 c 293.5279,0 533.2726,-245.2142 533.2726,-546.0346 0,-235.1869 -149.4986,-443.0265 -364.6308,-515.9526 z m -168.6418,880.5834 -396.536,0 -15.4968,0 -995.4421,0 c -211.4859,0 -383.7739,-178.6691 -383.7739,-397.4476 0,-152.2334 86.5998,-292.6162 220.6016,-358.2498 l 39.1978,-19.1431 9.1158,-42.8441 c 30.082,-142.206 154.0565,-245.2142 294.4394,-245.2142 30.9936,0 62.8988,5.4694 92.9808,15.4968 l 71.1031,23.701 37.3746,-64.722 c 100.2735,-174.1112 275.2963,-277.1194 470.3738,-277.1194 297.1741,0 543.2999,250.6837 546.9462,557.8851 l 0.9116,73.8378 72.9261,14.5852 c 165.907,31.9052 287.1468,182.3154 287.1468,357.3382 -0.9116,198.7238 -158.6144,361.8961 -351.8688,361.8961 z"
       id="path6"
       style="fill:#ffffff;fill-opacity:1"
       inkscape:connector-curvature="0" /></g></svg>