<?xml version="1.0" encoding="UTF-8" standalone="no"?>
<!-- Created with Inkscape (http://www.inkscape.org/) -->

<svg
   xmlns:dc="http://purl.org/dc/elements/1.1/"
   xmlns:cc="http://creativecommons.org/ns#"
   xmlns:rdf="http://www.w3.org/1999/02/22-rdf-syntax-ns#"
   xmlns:svg="http://www.w3.org/2000/svg"
   xmlns="http://www.w3.org/2000/svg"
   xmlns:sodipodi="http://sodipodi.sourceforge.net/DTD/sodipodi-0.dtd"
   xmlns:inkscape="http://www.inkscape.org/namespaces/inkscape"
   width="5000"
   height="5000"
   viewBox="0 0 5000 5000"
   id="svg2"
   version="1.1"
   inkscape:version="0.91 r13725"
   sodipodi:docname="instalador_minerva.svg">
  <defs
     id="defs4">
    <linearGradient
       id="lgrad"
       x1="1186.48"
       y1="1017.2354"
       x2="647.1709"
       y2="1322.8475"
       gradientTransform="scale(1.000006,0.99999405)"
       gradientUnits="userSpaceOnUse">
      <stop
         offset="0%"
         style="stop-color:#000000;stop-opacity:0"
         id="stop14298" />
      <stop
         offset="40%"
         style="stop-color:rgb(52,168,83);stop-opacity:1"
         id="stop14300" />
      <stop
         offset="60%"
         style="stop-color:rgb(251,188,5);stop-opacity:1"
         id="stop14302" />
      <stop
         offset="100%"
         style="stop-color:rgb(234,67,53);stop-opacity:1"
         id="stop14304" />
    </linearGradient>
  </defs>
  <sodipodi:namedview
     id="base"
     pagecolor="#ffffff"
     bordercolor="#666666"
     borderopacity="1.0"
     inkscape:pageopacity="0.0"
     inkscape:pageshadow="2"
     inkscape:zoom="1"
     inkscape:cx="272.466"
     inkscape:cy="211.93838"
     inkscape:document-units="px"
     inkscape:current-layer="layer1"
     showgrid="false"
     units="px"
     inkscape:window-width="1440"
     inkscape:window-height="852"
     inkscape:window-x="0"
     inkscape:window-y="0"
     inkscape:window-maximized="1" />
  <metadata
     id="metadata7">
    <rdf:RDF>
      <cc:Work
         rdf:about="">
        <dc:format>image/svg+xml</dc:format>
        <dc:type
           rdf:resource="http://purl.org/dc/dcmitype/StillImage" />
        <dc:title></dc:title>
      </cc:Work>
    </rdf:RDF>
  </metadata>
  <g
     inkscape:label="Layer 1"
     inkscape:groupmode="layer"
     id="layer1"
     transform="translate(0,3947.6381)">
    <g
       id="g4708"
       transform="matrix(9.9999993,0,0,9.9999993,1.7875e-4,-9471.2565)">
      <rect
         y="595.36188"
         x="41"
         height="396"
         width="326"
         id="rect4684"
         style="fill:#ffffff;fill-opacity:1;stroke:none;stroke-width:0.55900002;stroke-miterlimit:4;stroke-dasharray:none" />
      <rect
         y="607.36188"
         x="21"
         height="371"
         width="38"
         id="rect4686"
         style="fill:#ffffff;fill-opacity:1;stroke:none;stroke-width:0.55900002;stroke-miterlimit:4;stroke-dasharray:none" />
      <rect
         y="588.36188"
         x="361"
         height="396"
         width="26"
         id="rect4694"
         style="fill:#ffffff;fill-opacity:1;stroke:none;stroke-width:0.55900002;stroke-miterlimit:4;stroke-dasharray:none" />
      <rect
         y="581.36188"
         x="67"
         height="32"
         width="299"
         id="rect4688"
         style="fill:#ffffff;fill-opacity:1;stroke:none;stroke-width:0.55900002;stroke-miterlimit:4;stroke-dasharray:none" />
      <rect
         y="569.36188"
         x="107"
         height="24"
         width="220"
         id="rect4690"
         style="fill:#ffffff;fill-opacity:1;stroke:none;stroke-width:0.55900002;stroke-miterlimit:4;stroke-dasharray:none" />
      <rect
         y="599.36188"
         x="377"
         height="330"
         width="22"
         id="rect4696"
         style="fill:#ffffff;fill-opacity:1;stroke:none;stroke-width:0.55900002;stroke-miterlimit:4;stroke-dasharray:none" />
      <rect
         y="612.36188"
         x="392"
         height="255"
         width="22"
         id="rect4698"
         style="fill:#ffffff;fill-opacity:1;stroke:none;stroke-width:0.55900002;stroke-miterlimit:4;stroke-dasharray:none" />
      <rect
         y="967.36188"
         x="38"
         height="31"
         width="116"
         id="rect4700"
         style="fill:#ffffff;fill-opacity:1;stroke:none;stroke-width:0.55900002;stroke-miterlimit:4;stroke-dasharray:none" />
      <rect
         y="971.36188"
         x="33"
         height="10"
         width="19"
         id="rect4702"
         style="fill:#ffffff;fill-opacity:1;stroke:none;stroke-width:0.55900002;stroke-miterlimit:4;stroke-dasharray:none" />
      <rect
         y="988.36188"
         x="67"
         height="22"
         width="104"
         id="rect4704"
         style="fill:#ffffff;fill-opacity:1;stroke:none;stroke-width:0.55900002;stroke-miterlimit:4;stroke-dasharray:none" />
      <rect
         y="1002.3619"
         x="111"
         height="16"
         width="61"
         id="rect4706"
         style="fill:#ffffff;fill-opacity:1;stroke:none;stroke-width:0.55900002;stroke-miterlimit:4;stroke-dasharray:none" />
      <g
         transform="translate(-48.206274,9.3385856e-5)"
         id="g4654">
        <path
           d="m 265.08672,915.12557 c -7.02261,0 -13.87599,-0.17696 -20.56016,-0.35392 -4.14588,-0.17695 -8.12253,-0.4424 -12.0992,-0.70783 -2.45367,-0.17696 -4.99196,-0.26543 -7.44564,-0.4424 -5.33041,-0.44239 -10.4916,-0.88479 -15.65279,-1.50414 -0.9307,-0.0885 -1.94602,-0.17695 -2.96133,-0.26543 -5.83806,-0.70783 -11.59153,-1.41567 -17.17576,-2.30045 -0.16923,0 -0.25384,0 -0.42305,-0.0885 -28.68268,-4.42396 -53.21948,-11.14835 -72.42588,-19.19994 -0.0846,0 -0.16922,-0.0885 -0.33844,-0.0885 -3.55361,-1.50414 -6.85338,-3.00828 -10.06855,-4.6009 -0.33844,-0.17697 -0.76149,-0.35392 -1.09992,-0.53088 -2.87674,-1.41566 -5.499638,-2.9198 -7.953312,-4.42395 -0.592269,-0.35391 -1.184538,-0.70783 -1.776806,-1.06174 -2.199849,-1.32719 -4.145872,-2.74285 -6.091895,-4.07004 -0.761486,-0.53087 -1.522972,-1.06174 -2.199849,-1.59262 -1.607589,-1.2387 -3.045952,-2.47741 -4.484315,-3.80459 -0.761486,-0.70783 -1.522971,-1.41566 -2.199849,-2.12349 -1.099929,-1.15023 -2.11524,-2.30046 -3.045952,-3.45068 -0.676877,-0.79631 -1.269146,-1.59263 -1.861405,-2.47742 -0.761495,-1.06174 -1.353754,-2.21197 -1.946023,-3.27372 -0.423052,-0.88479 -0.846104,-1.76958 -1.184538,-2.65437 -0.423052,-1.06175 -0.761485,-2.12349 -1.01532,-3.18524 -0.253826,-1.32719 -0.592269,-2.74285 -0.592269,-4.15851 l 0,-72.64122 c 0.253835,0.26543 0.50766,0.44239 0.761495,0.70783 1.861405,1.6811 3.72282,3.3622 5.83806,5.0433 31.897848,25.2165 95.608928,44.77035 188.002698,44.77035 91.9707,0 155.59716,-19.46536 187.57962,-44.50491 2.53829,-1.94654 4.82274,-3.98156 7.02259,-6.01657 0,0 0,0 0,0 l 0,77.06517 c 0,4.86633 3.80745,8.84789 8.46097,8.84789 4.65354,0 8.46096,-3.98156 8.46096,-8.84789 l 0,-106.17476 0,-4.42395 0,-106.17475 0,-4.42395 c 0,-1.50414 -0.50764,-2.83132 -1.18452,-4.07003 -9.47629,-38.04595 -82.40982,-75.56103 -210.33962,-75.56103 -127.59139,0 -200.524921,37.33812 -210.255038,75.2956 -0.761486,1.32718 -1.269146,2.74284 -1.269146,4.33546 l 0,4.42395 0,106.17475 0,4.42395 0,101.75081 0,4.42395 0,106.17474 c 0,1.41567 0.338444,2.74285 1.015321,3.98156 9.645498,42.73534 90.447743,67.95184 167.611753,73.96844 0.25382,0 0.42304,0 0.67686,0 4.39971,0 8.12253,-3.5391 8.46097,-8.1401 0.33844,-4.8663 -3.13055,-9.1133 -7.78408,-9.4672 -94.17056,-7.4322 -148.99762,-37.33816 -152.805058,-61.75836 -0.08461,-0.44239 -0.169217,-0.79631 -0.253835,-1.15022 l 0,-74.41081 c 0.253835,0.26544 0.50766,0.4424 0.761495,0.70783 1.861405,1.6811 3.72282,3.36221 5.83806,5.0433 31.897848,25.12803 95.608928,44.68188 188.002698,44.68188 4.65353,0 8.46096,-3.98155 8.46096,-8.8479 0,-4.86634 -3.80743,-8.84789 -8.46096,-8.84789 z M 75.561051,674.46279 c 2.538292,2.1235 5.245801,4.15851 8.291743,6.19353 0.592269,0.4424 1.353755,0.79631 1.946023,1.23871 2.453684,1.59262 5.076584,3.18524 7.868702,4.77786 1.01532,0.53087 2.030631,1.15022 3.13056,1.6811 3.130551,1.6811 6.345721,3.27373 9.730111,4.77787 0.59226,0.26543 1.09993,0.53086 1.60759,0.79631 3.97665,1.76957 8.20713,3.45068 12.60683,5.04329 1.18454,0.4424 2.45368,0.88479 3.72283,1.32719 3.46899,1.23871 7.10721,2.38893 10.83003,3.53916 1.35376,0.44239 2.6229,0.79631 4.06128,1.23871 4.90736,1.41566 10.06854,2.83132 15.39895,4.07002 0.76149,0.17697 1.52297,0.35392 2.28446,0.53088 4.73814,1.06175 9.64551,2.03501 14.72208,3.00828 1.6922,0.35392 3.469,0.61935 5.16119,0.8848 4.82275,0.7963 9.73012,1.59261 14.80669,2.30045 1.26915,0.17695 2.53829,0.35391 3.89205,0.53087 6.26111,0.79631 12.77606,1.50414 19.46022,2.03502 1.69219,0.17695 3.38439,0.26543 5.07658,0.35391 5.33041,0.4424 10.83003,0.70783 16.41427,0.97326 2.03064,0.0885 4.06127,0.17697 6.1765,0.26545 7.19184,0.26543 14.63749,0.44239 22.33698,0.44239 7.69947,0 15.14512,-0.17696 22.42155,-0.44239 2.11524,-0.0885 4.14587,-0.17696 6.17652,-0.26545 5.58422,-0.26543 11.08386,-0.61934 16.41427,-0.97326 1.69218,-0.0885 3.38437,-0.26543 5.07657,-0.35391 6.68416,-0.61935 13.19911,-1.23871 19.46023,-2.03502 1.35375,-0.17696 2.53828,-0.35392 3.89204,-0.53087 5.07659,-0.70784 9.98394,-1.41567 14.80669,-2.30045 1.77679,-0.26545 3.46899,-0.61936 5.16119,-0.8848 5.07658,-0.97327 9.98394,-1.94653 14.72208,-3.00828 0.76149,-0.17696 1.52297,-0.35391 2.28446,-0.53088 5.33041,-1.2387 10.49161,-2.65436 15.39896,-4.07002 1.35376,-0.35392 2.70752,-0.79632 4.06126,-1.23871 3.72283,-1.15023 7.36104,-2.30045 10.83004,-3.53916 1.26914,-0.4424 2.53829,-0.88479 3.72284,-1.32719 4.39969,-1.59261 8.63017,-3.27372 12.60682,-5.04329 0.59228,-0.26545 1.09993,-0.53088 1.60759,-0.79631 3.38438,-1.59263 6.68416,-3.18525 9.73012,-4.77787 1.09992,-0.53088 2.11523,-1.15023 3.13054,-1.6811 2.79213,-1.59262 5.41502,-3.09677 7.86872,-4.77786 0.67687,-0.4424 1.35374,-0.79631 1.94601,-1.23871 2.96133,-2.03502 5.66884,-4.07003 8.29174,-6.19353 0.67688,-0.53088 1.18455,-1.06174 1.77681,-1.59262 1.09993,-0.97326 2.28447,-1.85806 3.29978,-2.83132 l 0,72.64122 c 0,1.41566 -0.33844,2.83133 -0.67688,4.33547 -0.25383,1.06175 -0.59226,2.12349 -1.01532,3.18524 -0.33844,0.88479 -0.76149,1.76958 -1.18453,2.65437 -0.59227,1.06176 -1.18455,2.21199 -1.94603,3.27373 -0.59226,0.79631 -1.18452,1.59262 -1.86141,2.47742 -0.9307,1.15022 -1.94601,2.30045 -3.04594,3.45068 -0.67689,0.70783 -1.43836,1.41566 -2.19985,2.12349 -1.35376,1.2387 -2.87674,2.56588 -4.48431,3.80459 -0.67688,0.53088 -1.43837,1.06175 -2.19985,1.59262 -1.94603,1.41566 -3.89206,2.74285 -6.09191,4.07004 -0.59226,0.35391 -1.18453,0.70783 -1.7768,1.06174 -2.53829,1.50415 -5.16119,2.91981 -7.9533,4.42395 -0.33845,0.17696 -0.76149,0.35391 -1.09992,0.53088 -3.13057,1.59262 -6.51496,3.09676 -10.06856,4.6009 -0.0846,0 -0.16923,0.0885 -0.33844,0.0885 -19.20639,8.05159 -43.82781,14.77598 -72.42587,19.19993 -0.16922,0 -0.25383,0 -0.42305,0.0885 -5.58423,0.88478 -11.25309,1.59262 -17.17576,2.30045 -0.93071,0.0885 -1.94603,0.17695 -2.96135,0.26543 -5.16118,0.53088 -10.32237,1.06175 -15.65278,1.50414 -2.45368,0.17697 -4.99198,0.26544 -7.44565,0.4424 -3.97665,0.26543 -7.9533,0.53088 -12.09918,0.70783 -6.68417,-0.0885 -13.53754,0.0885 -20.56014,0.0885 -7.02261,0 -13.87599,-0.17696 -20.56016,-0.35391 -4.14588,-0.17697 -8.12253,-0.4424 -12.0992,-0.70783 -2.45367,-0.17697 -4.99196,-0.26545 -7.44564,-0.4424 -5.33041,-0.4424 -10.4916,-0.88479 -15.65279,-1.50414 -0.9307,-0.0885 -1.94602,-0.17696 -2.96133,-0.26545 -5.83806,-0.70783 -11.59153,-1.41566 -17.17576,-2.30045 -0.16923,0 -0.25384,0 -0.42305,-0.0885 -28.68268,-4.42395 -53.21948,-11.14835 -72.42588,-19.19994 -0.0846,0 -0.16922,-0.0885 -0.33844,-0.0885 -3.55361,-1.50414 -6.85338,-3.00829 -10.06855,-4.60091 -0.33844,-0.17696 -0.76149,-0.35391 -1.09992,-0.53088 -2.87674,-1.41566 -5.499638,-2.9198 -7.953312,-4.42394 -0.592269,-0.35392 -1.184538,-0.70784 -1.776806,-1.06175 -2.199849,-1.32718 -4.145872,-2.74285 -6.091895,-4.07003 -0.761486,-0.53088 -1.522972,-1.06175 -2.199849,-1.59262 -1.607589,-1.23871 -3.045952,-2.47742 -4.484315,-3.8046 -0.761486,-0.70783 -1.522971,-1.41566 -2.199849,-2.1235 -1.099929,-1.15022 -2.11524,-2.30045 -3.045952,-3.45068 -0.676877,-0.79631 -1.269146,-1.59262 -1.861405,-2.4774 -0.761495,-1.06176 -1.353754,-2.21198 -1.946023,-3.27374 -0.423052,-0.88478 -0.846104,-1.76957 -1.184538,-2.65437 -0.423052,-1.06174 -0.761485,-2.12349 -1.01532,-3.18524 -0.253826,-1.32718 -0.592269,-2.74284 -0.592269,-4.15851 l 0,-72.64122 c 1.015321,0.97326 2.199858,1.94654 3.299778,2.83132 0.592268,0.61936 1.184537,1.15022 1.776806,1.6811 z M 265.08672,570.05762 c 114.64609,0 194.60221,34.94919 194.60221,66.35922 0,31.41003 -79.95612,66.35922 -194.60221,66.35922 -114.64612,0 -194.602253,-34.94919 -194.602253,-66.35922 0,-31.41003 79.956133,-66.35922 194.602253,-66.35922 z"
           id="path8"
           style="fill:#232323;fill-opacity:1"
           inkscape:connector-curvature="0" />
        <g
           transform="matrix(0.14176513,0,0,0.14176513,-183.69628,318.44943)"
           id="g4345">
          <path
             inkscape:connector-curvature="0"
             style="fill:#2fd566;fill-opacity:1"
             id="path6-2"
             d="m 4745.9898,4116.9624 c -38.5636,-364.4173 -345.2791,-650.8085 -712.9789,-650.8085 -229.5883,0 -446.6208,114.3791 -581.1452,301.4644 -26.008,-4.433 -52.9129,-7.093 -78.9209,-7.093 -208.0643,0 -392.8111,140.0923 -454.6923,337.8175 -171.2942,100.1924 -279.8106,287.2777 -279.8106,487.6629 0,311.2177 250.2153,563.9159 556.9308,563.9159 l 965.8846,0 c 5.3811,0 10.762,0 15.2462,-0.8842 5.381,0 10.7619,0.8842 17.0397,0.8842 l 386.5332,0 c 288.7789,0 524.6449,-238.5116 524.6449,-531.1095 0,-228.7583 -147.0799,-430.9168 -358.7315,-501.8497 z"
             sodipodi:nodetypes="cscscssscsssc" />
          <path
             inkscape:connector-curvature="0"
             style="fill:#232323;fill-opacity:1"
             id="path6"
             d="m 4760.3692,4114.9727 c -39.1978,-374.6582 -350.9572,-669.0976 -724.7037,-669.0976 -233.3638,0 -453.9654,117.5935 -590.702,309.9362 -26.4357,-4.5579 -53.783,-7.2926 -80.2187,-7.2926 -211.4859,0 -399.2708,144.0292 -462.1696,347.3108 -174.1112,103.0082 -284.412,295.351 -284.412,501.3674 0,319.9635 254.33,579.763 566.0893,579.763 l 981.7685,0 c 5.4694,0 10.9389,0 15.4968,-0.9116 5.4694,0 10.9389,0.9116 17.3199,0.9116 l 392.8897,0 c 293.5279,0 533.2726,-245.2142 533.2726,-546.0346 0,-235.1869 -149.4986,-443.0265 -364.6308,-515.9526 z m -168.6418,880.5834 -396.536,0 -15.4968,0 -995.4421,0 c -211.4859,0 -383.7739,-178.6691 -383.7739,-397.4476 0,-152.2334 86.5998,-292.6162 220.6016,-358.2498 l 39.1978,-19.1431 9.1158,-42.8441 c 30.082,-142.206 154.0565,-245.2142 294.4394,-245.2142 30.9936,0 62.8988,5.4694 92.9808,15.4968 l 71.1031,23.701 37.3746,-64.722 c 100.2735,-174.1112 275.2963,-277.1194 470.3738,-277.1194 297.1741,0 543.2999,250.6837 546.9462,557.8851 l 0.9116,73.8378 72.9261,14.5852 c 165.907,31.9052 287.1468,182.3154 287.1468,357.3382 -0.9116,198.7238 -158.6144,361.8961 -351.8688,361.8961 z" />
        </g>
        <g
           id="g4578"
           style="fill:#ff0000;fill-opacity:1"
           transform="matrix(0.23602951,0,0,0.24642876,-54.553389,-789.32618)">
          <path
             id="path4553"
             d="m 1440.6959,7246.5754 -159.615,0 c -57.0054,0 -104.5098,-45.4492 -104.5098,-99.9883 l 0,-107.2602 c -47.5045,-12.7258 -93.1088,-29.0875 -136.8129,-52.7211 l -79.80756,78.1727 c -39.90376,38.1773 -106.41003,38.1773 -148.21397,0 L 699.6261,6957.5183 c -39.90376,-38.1774 -39.90376,-101.8063 0,-141.8017 l 76.00716,-72.7188 c -24.70232,-41.8133 -45.60429,-85.4445 -60.80573,-130.8938 l -110.21038,0 c -57.00538,0 -104.50985,-45.4492 -104.50985,-99.9883 l 0,-152.7094 c 0,-54.5391 47.50447,-99.9884 104.50985,-99.9884 l 102.60967,0 c 13.30125,-47.2672 32.30304,-92.7164 57.00537,-136.3477 l -74.10698,-72.7188 c -39.90377,-38.1773 -39.90377,-101.8063 0,-141.8016 l 112.11056,-107.2602 c 19.00179,-18.1797 45.6043,-29.0875 74.10699,-29.0875 28.50268,0 55.10519,10.9078 74.10698,29.0875 l 70.30666,67.2649 c 45.6043,-25.4516 93.1087,-45.4493 144.4136,-59.993 l 0,-98.1704 c 0,-54.5391 47.5045,-99.9883 104.5098,-99.9883 l 159.6151,0 c 57.0053,0 104.5098,45.4492 104.5098,99.9883 l 0,94.5344 c 51.3049,12.7258 98.8093,32.7235 144.4136,56.3571 l 72.2068,-69.0829 c 39.9038,-38.1773 106.4101,-38.1773 148.214,0 l 112.1106,107.2602 c 39.9037,38.1774 39.9037,101.8063 0,141.8017 l -72.2068,69.0828 c 24.7023,43.6313 45.6043,89.0805 58.9055,136.3477 l 106.4101,0 c 57.0053,0 104.5098,45.4493 104.5098,99.9884 l 0,152.7094 c 0,54.5391 -47.5045,99.9883 -104.5098,99.9883 l -106.4101,0 c -13.3012,45.4493 -32.303,90.8985 -57.0053,132.7118 l 79.8075,76.3547 c 39.9037,38.1774 39.9037,101.8063 0,141.8017 L 1908.14,7057.5066 c -19.0018,18.1797 -45.6043,29.0875 -74.107,29.0875 -28.5027,0 -55.1052,-10.9078 -74.107,-29.0875 l -77.9073,-74.5368 c -43.7041,23.6336 -87.4082,41.8133 -134.9127,54.5391 l 0,110.8962 c -1.9002,52.7211 -47.5045,98.1703 -106.4101,98.1703 z m -408.5385,-361.7759 c 7.6008,0 17.1017,1.8179 24.7024,7.2718 55.1052,32.7235 114.0107,54.5391 176.7166,67.2649 22.8022,3.636 38.0036,23.6336 38.0036,43.6313 l 0,141.8016 c 0,5.4539 3.8004,9.0899 9.5009,9.0899 l 159.615,0 c 5.7006,0 9.5009,-3.636 9.5009,-9.0899 l 0,-145.4375 c 0,-21.8157 15.2015,-39.9954 36.1034,-43.6313 62.706,-14.5438 121.6115,-38.1774 174.8165,-70.9008 19.0018,-10.9078 43.7041,-9.0899 58.9056,5.4539 l 104.5098,99.9883 c 3.8004,3.6359 9.5009,3.6359 13.3013,0 l 112.1105,-107.2602 c 3.8004,-3.6359 3.8004,-9.0898 0,-12.7258 l -104.5098,-99.9883 c -15.2014,-14.5438 -19.0018,-38.1774 -5.7005,-56.3571 34.2032,-52.7211 58.9055,-110.8961 74.1069,-170.8891 5.7006,-19.9977 24.7024,-36.3594 45.6043,-36.3594 l 144.4137,0 c 5.7005,0 9.5009,-3.6359 9.5009,-9.0899 l 0,-152.7094 c 0,-5.4539 -3.8004,-9.0898 -9.5009,-9.0898 l -144.4137,0 c -22.8021,0 -41.8039,-14.5438 -45.6043,-36.3594 -15.2014,-61.811 -39.9037,-119.986 -76.0071,-174.5251 -11.4011,-18.1797 -9.5009,-41.8133 5.7005,-56.3571 l 98.8093,-94.5344 c 3.8004,-3.6359 3.8004,-9.0898 0,-12.7258 l -112.1105,-107.2602 c -3.8004,-3.6359 -9.5009,-3.6359 -13.3013,0 l -98.8093,94.5344 c -15.2014,14.5438 -39.9038,18.1797 -58.9056,5.4539 -57.0053,-34.5414 -119.7112,-58.175 -184.3173,-72.7187 -22.8022,-3.636 -38.0036,-23.6337 -38.0036,-43.6313 l 0,-130.8938 c 0,-5.4539 -3.8004,-9.0899 -9.5009,-9.0899 l -159.615,0 c -5.7006,0 -9.5009,3.636 -9.5009,9.0899 l 0,132.7117 c 0,21.8157 -15.2015,39.9954 -36.1034,43.6313 -64.6061,14.5438 -127.312,39.9954 -182.4172,76.3547 -19.0018,12.7258 -43.70416,9.0899 -58.90559,-5.4539 l -96.90914,-89.0805 c -3.80035,-3.6359 -9.50089,-3.6359 -13.30125,0 l -112.11057,107.2602 c -3.80036,3.636 -3.80036,9.0899 0,12.7258 l 100.70949,96.3524 c 15.20144,14.5438 19.0018,38.1774 7.60072,56.3571 -34.20322,54.5391 -58.90555,112.7141 -72.2068,174.525 -3.80036,21.8157 -24.70233,36.3594 -47.50448,36.3594 l -140.61326,0 c -5.70053,0 -9.50089,3.636 -9.50089,9.0899 l 0,152.7094 c 0,5.4539 3.80036,9.0899 9.50089,9.0899 l 146.3138,0 c 20.90197,0 41.80394,14.5437 45.60429,34.5414 15.20144,59.993 41.80394,116.3501 77.90735,169.0712 13.30125,18.1797 9.50089,41.8133 -5.70054,56.357 l -104.50985,99.9884 c -3.80036,3.6359 -3.80036,9.0898 0,12.7257 l 112.11057,107.2603 c 3.80035,3.6359 9.50089,3.6359 13.30125,0 l 106.41003,-101.8063 c 9.50088,-7.2719 22.80218,-12.7258 34.20318,-12.7258 z"
             inkscape:connector-curvature="0"
             style="fill:#ff0000;fill-opacity:1" />
          <path
             id="path4555"
             d="m 1355.1879,6746.6338 c -182.4172,0 -332.5314,-143.6196 -332.5314,-318.1447 0,-174.5251 150.1142,-318.1447 332.5314,-318.1447 182.4172,0 332.5313,143.6196 332.5313,318.1447 0,174.5251 -150.1141,318.1447 -332.5313,318.1447 z m 0,-545.3909 c -131.1124,0 -237.5224,101.8063 -237.5224,227.2462 0,125.4399 106.41,227.2462 237.5224,227.2462 131.1123,0 237.5224,-101.8063 237.5224,-227.2462 0,-125.4399 -106.4101,-227.2462 -237.5224,-227.2462 z"
             inkscape:connector-curvature="0"
             style="fill:#ff0000;fill-opacity:1" />
        </g>
      </g>
    </g>
  </g>
  <style
     id="style4551"
     type="text/css">
	.st0{fill:#FFFFFF;}
	.st1{fill:none;stroke:#000000;stroke-width:5;stroke-linecap:round;stroke-linejoin:round;stroke-miterlimit:10;}
</style>
</svg>
