<?xml version="1.0" encoding="UTF-8" standalone="no"?>
<svg
   xmlns:dc="http://purl.org/dc/elements/1.1/"
   xmlns:cc="http://creativecommons.org/ns#"
   xmlns:rdf="http://www.w3.org/1999/02/22-rdf-syntax-ns#"
   xmlns:svg="http://www.w3.org/2000/svg"
   xmlns="http://www.w3.org/2000/svg"
   xmlns:sodipodi="http://sodipodi.sourceforge.net/DTD/sodipodi-0.dtd"
   xmlns:inkscape="http://www.inkscape.org/namespaces/inkscape"
   height="5000.0054"
   width="5000"
   id="svg13650"
   xml:space="preserve"
   enable-background="new 0 0 100 100"
   viewBox="0 0 5000 5000.0054"
   y="0px"
   x="0px"
   version="1.1"
   inkscape:version="0.91 r13725"
   sodipodi:docname="logoVECTORIZADOblanco.svg"><sodipodi:namedview
     pagecolor="#ffffff"
     bordercolor="#666666"
     borderopacity="1"
     objecttolerance="10"
     gridtolerance="10"
     guidetolerance="10"
     inkscape:pageopacity="0"
     inkscape:pageshadow="2"
     inkscape:window-width="1440"
     inkscape:window-height="856"
     id="namedview14308"
     showgrid="false"
     inkscape:zoom="0.088388348"
     inkscape:cx="1927.3607"
     inkscape:cy="3436.0376"
     inkscape:window-x="1"
     inkscape:window-y="0"
     inkscape:window-maximized="0"
     inkscape:current-layer="svg13650"
     showguides="false"
     fit-margin-top="0"
     fit-margin-left="0"
     fit-margin-right="0"
     fit-margin-bottom="0"><inkscape:grid
       type="xygrid"
       id="grid4212"
       originx="0"
       originy="3.710938e-06" /></sodipodi:namedview><metadata
     id="metadata13666"><rdf:RDF><cc:Work
         rdf:about=""><dc:format>image/svg+xml</dc:format><dc:type
           rdf:resource="http://purl.org/dc/dcmitype/StillImage" /><dc:title></dc:title></cc:Work></rdf:RDF></metadata><defs
     id="defs14295"><linearGradient
       id="lgrad"
       x1="1186.48"
       y1="1017.2354"
       x2="647.1709"
       y2="1322.8475"
       gradientTransform="scale(1.000006,0.99999405)"
       gradientUnits="userSpaceOnUse"><stop
         offset="0%"
         style="stop-color:#000000;stop-opacity:0"
         id="stop14298" /><stop
         offset="40%"
         style="stop-color:rgb(52,168,83);stop-opacity:1"
         id="stop14300" /><stop
         offset="60%"
         style="stop-color:rgb(251,188,5);stop-opacity:1"
         id="stop14302" /><stop
         offset="100%"
         style="stop-color:rgb(234,67,53);stop-opacity:1"
         id="stop14304" /></linearGradient></defs><path
     d="m 3031.2808,725.47292 c -28.8587,0.30962 -54.0336,23.02567 -71.5715,64.93235 -45.7057,108.98814 -125.1827,347.34223 -125.2594,347.53403 l -72.224,227.8773 -54.3406,-13.5851 -13.585,-3.4154 4.9891,-27.4389 -0.2326,0 c 2.9549,-15.1969 12.0116,-63.973 12.0116,-63.973 l 65.0476,-353.29038 c 0.2681,-1.6118 12.8942,-132.85806 12.8942,-235.1688 0,-32.4662 -1.1895,-61.93904 -4.7967,-84.38908 -9.0184,-54.8011 -47.4712,-94.0598 -91.2582,-94.75063 -34.5002,-0.2681 -65.4315,27.59243 -76.522,77.51975 -25.4435,107.68337 -48.6227,323.85598 -48.6995,324.20142 l -70.3433,345.42332 -15.8877,78.0186 -3.185,15.8109 -27.2852,-3.9143 27.2469,-408.43688 c 0.04,-0.95924 8.7498,-288.78016 16.1178,-423.1733 0.04,-3.2236 0.1125,-6.2937 0.1125,-9.47889 0,-75.90797 -51.0783,-129.82636 -106.8004,-130.32526 -49.2367,-0.23209 -92.4481,44.51628 -97.9743,129.71126 -13.4699,180.48281 -24.1769,427.39466 -24.1769,427.50981 l -63.2439,406.63316 -14.5061,-1.3813 -7.5985,-268.0956 -12.0885,-326.38876 c 0,-0.38115 0.04,-5.4493 0.04,-13.58515 -0.04,-40.83214 -0.5776,-157.18852 -8.2893,-213.63973 -7.5601,-46.93404 -55.1848,-71.37959 -98.5882,-71.64825 -37.9156,-0.95923 -79.7072,22.3349 -85.6171,71.80171 -7.4833,58.29331 -8.5962,400.18609 -8.6346,649.82268 0,148.1317 0.5002,262.7228 0.5002,262.7228 l -8.1357,169.5072 12.2036,130.0183 0,0.078 c 0.6526,7.6753 28.3983,355.5931 28.3983,645.1792 0,18.267 -0.04,36.3038 -0.3096,53.9568 -0.3097,22.6802 -0.6139,43.6336 -0.9212,63.7044 -3.1467,4.49 -4.0679,10.3999 -1.6118,15.7341 0.3812,0.614 0.9212,1.0362 1.3046,1.6499 -3.5689,232.7895 -6.8309,288.4733 -6.8309,288.7802 -0.5359,8.6347 6.1017,16.118 14.7748,16.617 0.3812,0.04 0.7294,0.04 1.0748,0.04 8.1741,0 15.0434,-6.4089 15.5422,-14.7365 0,-0.5002 3.07,-52.8439 6.524,-266.8675 22.9489,9.3255 53.6881,12.6641 88.879,17.5764 56.2978,5.9481 122.3815,7.3297 172.8461,7.4065 46.0513,-0.078 79.0547,-1.1895 79.1315,-1.1895 8.7115,-0.3451 15.504,-7.5601 15.1968,-16.2716 -0.3096,-8.6345 -7.5983,-15.4272 -16.1945,-15.1201 l 0,-0.04 c -0.1125,0 -32.543,1.1509 -78.0954,1.0746 -49.8506,0.078 -115.2819,-1.3432 -169.5841,-7.1378 -27.0935,-2.8785 -51.5007,-6.9079 -69.1921,-12.0502 -10.8604,-2.8014 -18.0752,-6.6392 -22.3733,-9.4789 0.3096,-21.7593 0.6526,-44.4779 0.9979,-69.3073 0.2321,-17.8449 0.3096,-35.9968 0.3096,-54.3789 0,-273.4298 -24.599,-597.7079 -28.0912,-642.723 4.4132,-6.7542 13.5851,-20.4545 24.7525,-35.4595 15.3505,-21.0302 35.9201,-44.6698 48.0469,-51.9613 20.1091,-12.9711 63.5892,-57.1804 112.5571,-105.9564 48.2004,-48.1621 99.893,-99.7396 126.5261,-120.5778 24.2921,-19.0345 45.4374,-23.2943 61.2866,-23.3711 8.558,0 15.6191,1.3814 20.3393,2.6479 4.6819,1.3814 6.2938,2.4174 6.332,2.3025 l 2.4943,1.1516 2.6866,0.3811 c 0.4587,0 373.668,44.3628 420.9857,48.2004 0.3812,1.5737 0.8063,4.2984 0.7676,8.7881 0.077,2.8015 -0.1126,6.3705 -0.536,10.7453 -10.0543,70.2667 -3.2616,71.6099 -60.9027,108.6044 -21.5675,14.3527 -110.1011,20.5313 -184.1671,19.8788 -60.2505,0 -112.7872,-2.571 -125.6049,-2.571 -0.9212,0 -1.6887,0 -2.6866,0.04 -0.4587,0 -0.9979,0.1131 -2.1108,0.2321 -0.6525,0.1546 -1.3432,0.1906 -3.1467,0.8443 -0.6525,0.9979 -8.1358,0.7675 -10.1696,14.7364 0.8443,4.1829 1.9573,7.138 3.1087,9.1336 -5.603,11.6279 -22.6804,36.6107 -43.0196,63.6659 -0.7296,0.5359 -1.4969,0.8443 -2.1109,1.4969 -1.6117,1.7268 -2.6864,3.7226 -3.3771,5.7565 -8.3661,10.9756 -17.0775,22.1047 -25.7505,32.6965 -36.5339,45.7059 -71.9935,86.8451 -72.0319,86.8835 -5.7178,6.6007 -4.9503,16.5401 1.6119,22.2198 6.5239,5.6797 16.4633,4.9503 22.1814,-1.6118 0.04,-0.1551 38.1074,-44.3244 76.4068,-92.2946 4.7587,-5.9483 9.5174,-12.0117 14.1992,-18.0368 61.2865,65.7767 83.8131,148.4388 83.8899,235.3223 0.4587,212.6037 -135.8128,440.3659 -135.4291,440.7496 -4.4901,7.4066 -2.072,17.1157 5.3726,21.6058 2.5327,1.535 5.3724,2.2644 8.1358,2.2644 5.2956,0 10.515,-2.7247 13.4699,-7.5602 0.1901,-0.7288 44.2474,-73.8356 82.854,-177.7964 l 27.8225,102.8479 c 1.919,7.0612 8.2891,11.6663 15.1969,11.6663 1.3433,0 2.7246,-0.1905 4.0679,-0.5775 8.4812,-2.2644 13.3935,-10.9372 11.0907,-19.3032 l -38.4135,-142.221 c -0.4227,-1.5737 -1.2666,-2.8783 -2.1109,-4.1447 22.1432,-69.9213 39.2972,-148.9377 39.4507,-227.4936 0.078,-93.5993 -25.2897,-187.1602 -96.0935,-260.6121 3.2235,-4.2984 6.4086,-8.5579 9.402,-12.7025 0.8061,0.4586 1.5349,1.0747 2.456,1.3813 l -0.077,-0.077 c 0.8444,0.1906 167.435,54.5324 327.8087,54.6092 8.7116,0 15.6576,-7.0996 15.6576,-15.6959 0,-8.6729 -6.9846,-15.7342 -15.6576,-15.7342 -76.7906,0 -156.1522,-13.2397 -216.4411,-26.5178 -46.9341,-10.4 -82.0098,-20.608 -95.4415,-24.6759 7.1761,-10.8988 12.8177,-19.8788 15.8877,-29.2042 22.7187,0.8056 64.3569,2.2644 109.6022,2.2644 76.8674,-0.7294 161.4866,-2.5329 200.3999,-24.4456 63.1671,-35.4595 70.0366,-66.3523 75.9848,-132.5127 0.4587,-5.3725 0.7295,-9.6708 0.7295,-13.777 -0.1125,-14.0073 -2.6098,-24.2537 -9.8244,-31.8139 -3.569,-3.5689 -7.7519,-5.526 -10.4,-6.3704 l -0.7673,0.04 -3.1088,-1.6886 -3.4921,-0.1905 c -5.0658,-0.2681 -22.4116,-2.0721 -47.2412,-4.7967 l 77.4814,-244.6477 c 0.077,-0.1131 79.6305,-238.54589 124.4154,-345.11635 15.6573,-37.07132 32.7348,-45.97462 42.5207,-45.70597 7.7136,-0.0775 16.8088,4.87353 24.7143,16.11798 7.7519,11.09069 13.2398,27.74589 13.1628,46.39669 0.077,5.98668 -0.5357,12.2036 -1.6116,18.72754 -14.9669,80.39791 -67.7722,226.61091 -67.7722,226.87951 l -105.6496,353.2521 -8.059,258.1561 -10.2464,150.4343 c -13.0095,13.8922 -9.3253,90.913 -8.4044,123.9164 1.8422,46.7421 2.4175,90.6444 2.4562,90.7212 l 0,2.9551 0.7676,1.7654 c 0.1125,0.8062 0.3451,2.7247 0.3451,6.1018 0.2326,27.2854 -16.1948,144.1407 -187.1603,510.1335 -0.9211,0.3096 -2.4562,0.536 -4.8354,0.5777 -30.3938,1.8423 -112.25,-51.6159 -172.1936,-52.8439 -15.0819,-0.04 -30.7392,3.8373 -42.7893,15.0816 -6.4089,5.8717 -6.7543,15.888 -0.8444,22.2583 5.8714,6.3703 15.9262,6.7542 22.2581,0.8061 4.6818,-4.3363 11.1675,-6.6007 21.4139,-6.754 43.8641,-1.113 119.8103,48.8909 169.3154,52.4599 l -7.6366,187.8511 c -0.3812,8.673 6.3703,16.0027 15.1201,16.3481 l 0.7293,0 c 8.3659,0 15.2737,-6.6007 15.6191,-15.1201 l 8.059,-197.4067 c 0.04,-0.6525 -0.2681,-1.1895 -0.3096,-1.8803 l 1.5348,-1.4581 1.2666,-2.6866 c 173.2681,-371.0969 191.6503,-489.564 191.9189,-527.3644 0,-6.2553 -0.5359,-10.3999 -1.1129,-13.2398 -0.1126,-8.6729 -0.7676,-45.3605 -2.2644,-85.0798 l 18.3822,-273.1228 7.9822,-257.4653 99.1892,-348.4934 c -0.1551,0.3812 57.8459,-145.71402 73.8486,-231.21601 1.4584,-8.21247 2.2257,-16.27144 2.2257,-24.25367 -0.3452,-48.35393 -26.7481,-92.29458 -69.3839,-93.9447 z m -654.7347,616.66568 c -21.9511,-0.078 -51.117,6.7541 -80.7049,30.1252 -29.8182,23.4478 -80.8969,74.6799 -129.3659,123.1106 -47.7399,47.9701 -94.8657,94.3284 -106.9542,101.5048 -20.8382,13.5851 -43.7871,41.9067 -60.6726,65.201 l -7.9439,-84.6194 8.059,-167.8954 c 0,-1.0747 -0.5002,-115.3203 -0.5002,-263.3752 -0.04,-248.25508 1.4582,-594.02383 8.4044,-645.75478 4.7973,-32.31269 26.1341,-43.36504 54.4174,-44.36284 32.7347,-0.26811 65.3161,20.5696 67.5419,44.40125 7.2146,51.99962 7.9438,169.31538 7.9055,209.37996 l 0,14.04569 12.05,326.96442 8.4811,295.803 98.3964,9.3638 c 8.5963,0.8444 16.3098,-5.488 17.1541,-14.1608 0.8443,-8.673 -5.488,-16.2715 -14.1608,-17.1541 l -24.9061,-2.3793 63.1287,-406.63328 c 0.2321,-2.11076 10.8221,-248.52366 24.3305,-428.2389 6.8309,-77.75002 38.568,-100.43031 66.5824,-100.62224 33.9631,0.0775 75.3322,36.76435 75.3707,98.85692 0.04,2.53293 -0.04,5.18075 -0.1551,8.09733 -7.3299,134.85367 -16.0796,422.98147 -16.0796,423.0582 l -28.8587,432.72907 c -1.4583,-0.1546 -2.6866,-0.3097 -3.6072,-0.4227 -5.6796,-2.3412 -19.188,-6.9461 -37.9156,-7.0228 z m 127.9457,17.653 6.1788,-30.2404 6.2935,-30.9695 6.7928,-33.3104 6.2937,-30.8929 68.8083,-338.05508 c 0.2681,-1.80353 23.6013,-218.05307 48.2388,-321.78364 10.6301,-42.25206 29.1658,-52.99741 45.8979,-53.34275 22.6419,-0.65262 53.4196,25.02118 60.2121,68.34783 3.07,19.22644 4.375,47.81657 4.375,79.40011 0,99.96979 -12.5488,230.60205 -12.5488,230.79393 l -65.1626,353.3672 -11.513,64.4718 -0.4226,-0.04 -5.6798,30.9695 -4.3363,23.7165 41.0624,10.2848 c -63.5505,-7.3682 -137.5395,-16.0412 -194.4899,-22.7187 z"
     id="path13654"
     inkscape:connector-curvature="0"
     style="stroke:#ffffff;stroke-width:30.01215553;stroke-linejoin:miter;stroke-miterlimit:4;stroke-dasharray:none;fill:#ffffff"
     sodipodi:nodetypes="ccccccccccsccccccccccsccccccccccccccccsccccccscccccccccccccscccccccccccccccscccccccccccccccccscccsccccccccccssccccccccccccccccccccccccccccccccccccccscccccccccccccccccccccccccccccccscccccccccccccccccccccsccccccccc" /><rect
     style="fill:#ffffff;stroke:none;stroke-width:12;stroke-linecap:round;stroke-linejoin:miter;stroke-miterlimit:4;stroke-dasharray:none;stroke-opacity:0.00392157"
     id="rect4191"
     width="54.271984"
     height="77.531403"
     x="3161.6265"
     y="241.82198"
     transform="matrix(0.96824396,0.25000727,-0.25000727,0.96824396,0,0)" /><path
     style="fill:#34a853;fill-opacity:1"
     d="M 731.34826,731.35358 921.44737,921.45269 C 1791.7109,51.189164 3207.8525,51.163755 4078.1786,921.48982 l 190.1362,-190.13621 c -975.1684,-975.12235 -2561.839,-975.12755 -3536.96654,-3e-5 z"
     id="path13656-9"
     inkscape:connector-curvature="0" /><path
     inkscape:connector-curvature="0"
     style="fill:#ea4335;fill-opacity:1"
     d="M 731.3439,731.34923 921.44303,921.44835 C 51.179493,1791.7119 51.154013,3207.8535 921.48008,4078.1795 L 731.3439,4268.3157 c -975.12289,-975.1678 -975.12752,-2561.8389 0,-3536.96647 z"
     id="path13656-9-0" /><path
     inkscape:connector-curvature="0"
     style="fill:#fbbc05;fill-opacity:1;stroke:none"
     d="M 731.38202,4268.285 923.51795,4078.3 c 860.41205,870.3145 2276.10465,870.7834 3155.73045,0.9537 l 187.9785,190.153 c -985.5929,974.5604 -2571.755,974.0732 -3535.84494,-1.1108 z"
     id="path13656-9-1-5" /><text
     xml:space="preserve"
     style="font-style:normal;font-weight:normal;font-size:40.01620865px;line-height:125%;font-family:sans-serif;letter-spacing:0px;word-spacing:0px;fill:#000000;fill-opacity:1;stroke:none;stroke-width:1px;stroke-linecap:butt;stroke-linejoin:miter;stroke-opacity:1"
     x="-1201.4991"
     y="919.37018"
     id="text4234"
     sodipodi:linespacing="125%"><tspan
       sodipodi:role="line"
       id="tspan4236"
       x="-1201.4991"
       y="919.37018" /></text>
<text
     xml:space="preserve"
     style="font-style:normal;font-weight:normal;font-size:231.81207275px;line-height:125%;font-family:sans-serif;letter-spacing:0px;word-spacing:0px;fill:#000000;fill-opacity:1;stroke:none;stroke-width:1px;stroke-linecap:butt;stroke-linejoin:miter;stroke-opacity:1"
     x="741.14911"
     y="3953.8401"
     id="text14850"
     sodipodi:linespacing="125%"><tspan
       sodipodi:role="line"
       id="tspan14852"
       x="741.14911"
       y="3953.8401"
       style="font-style:normal;font-variant:normal;font-weight:normal;font-stretch:normal;font-size:1448.82556152px;font-family:'Architects Daughter';-inkscape-font-specification:'Architects Daughter'"><tspan
         style="fill:#34a853"
         id="tspan4149">M</tspan><tspan
         style="fill:#ea4335"
         id="tspan4151">A</tspan><tspan
         id="tspan4262"
         style="fill:none">ii</tspan><tspan
         style="font-size:1554.1229248px;fill:#4285f4"
         id="tspan4155">T</tspan></tspan></text>
<g
     id="g4268"
     transform="matrix(0.95638331,0,0,0.89762172,4436.3911,2744.3086)"><text
       transform="matrix(0,-1.4684067,0.68101024,0,0,0)"
       sodipodi:linespacing="125%"
       id="text4238"
       y="-1784.1573"
       x="-347.32361"
       style="font-style:normal;font-weight:normal;font-size:1031.66271973px;line-height:125%;font-family:sans-serif;letter-spacing:0px;word-spacing:0px;fill:#fbbc05;fill-opacity:1;stroke:none;stroke-width:1px;stroke-linecap:butt;stroke-linejoin:miter;stroke-opacity:1"
       xml:space="preserve"><tspan
         style="font-style:normal;font-variant:normal;font-weight:normal;font-stretch:normal;font-family:'Architects Daughter';-inkscape-font-specification:'Architects Daughter';fill:#fbbc05"
         y="-1784.1573"
         x="-347.32361"
         id="tspan4240"
         sodipodi:role="line">I</tspan></text>
<text
       transform="matrix(0,-1.4684067,0.68101024,0,0,0)"
       sodipodi:linespacing="125%"
       id="text4238-3"
       y="-1784.1569"
       x="-986.06818"
       style="font-style:normal;font-weight:normal;font-size:1031.66271973px;line-height:125%;font-family:sans-serif;letter-spacing:0px;word-spacing:0px;fill:#fbbc05;fill-opacity:1;stroke:none;stroke-width:1px;stroke-linecap:butt;stroke-linejoin:miter;stroke-opacity:1"
       xml:space="preserve"><tspan
         style="font-style:normal;font-variant:normal;font-weight:normal;font-stretch:normal;font-family:'Architects Daughter';-inkscape-font-specification:'Architects Daughter';fill:#fbbc05"
         y="-1784.1569"
         x="-986.06818"
         id="tspan4240-9"
         sodipodi:role="line">I</tspan></text>
<text
       transform="scale(0.90425193,1.1058865)"
       sodipodi:linespacing="125%"
       id="text4264"
       y="1272.8933"
       x="-1671.2637"
       style="font-style:normal;font-weight:normal;font-size:1675.3079834px;line-height:125%;font-family:sans-serif;letter-spacing:0px;word-spacing:0px;fill:#000000;fill-opacity:1;stroke:none;stroke-width:1px;stroke-linecap:butt;stroke-linejoin:miter;stroke-opacity:1"
       xml:space="preserve"><tspan
         style="font-style:normal;font-variant:normal;font-weight:normal;font-stretch:normal;font-family:'Architects Daughter';-inkscape-font-specification:'Architects Daughter';fill:#fbbc05"
         y="1272.8933"
         x="-1671.2637"
         id="tspan4266"
         sodipodi:role="line">I</tspan></text>
</g><text
     xml:space="preserve"
     style="font-style:normal;font-weight:normal;font-size:702.26525879px;line-height:125%;font-family:sans-serif;letter-spacing:0px;word-spacing:0px;fill:#ffffff;fill-opacity:1;stroke:none;stroke-width:1px;stroke-linecap:butt;stroke-linejoin:miter;stroke-opacity:1;"
     x="3850.8992"
     y="3924.6294"
     id="text4252"
     sodipodi:linespacing="125%"><tspan
       sodipodi:role="line"
       id="tspan4254"
       x="3850.8992"
       y="3924.6294"
       style="font-style:normal;font-variant:normal;font-weight:normal;font-stretch:normal;font-size:702.26525879px;font-family:'Architects Daughter';-inkscape-font-specification:'Architects Daughter';fill:#ffffff;">S</tspan></text>
<path
     inkscape:connector-curvature="0"
     style="fill:#4285f4;fill-opacity:1"
     d="m 4268.6561,4268.4859 -190.0992,-190.0991 c 870.2636,-870.2636 870.289,-2286.4052 -0.037,-3156.73117 l 190.1362,-190.1362 c 975.1228,975.16777 975.1275,2561.83897 0,3536.96647 z"
     id="path13656-9-0-2" /></svg>