<?xml version="1.0" encoding="UTF-8" standalone="no"?>
<svg
   xmlns:dc="http://purl.org/dc/elements/1.1/"
   xmlns:cc="http://creativecommons.org/ns#"
   xmlns:rdf="http://www.w3.org/1999/02/22-rdf-syntax-ns#"
   xmlns:svg="http://www.w3.org/2000/svg"
   xmlns="http://www.w3.org/2000/svg"
   xmlns:sodipodi="http://sodipodi.sourceforge.net/DTD/sodipodi-0.dtd"
   xmlns:inkscape="http://www.inkscape.org/namespaces/inkscape"
   height="3000"
   width="5543.0581"
   id="svg13650"
   xml:space="preserve"
   enable-background="new 0 0 100 100"
   viewBox="0 0 5543.0581 2999.9999"
   y="0px"
   x="0px"
   version="1.1"
   inkscape:version="0.91 r13725"
   sodipodi:docname="logoBlanco.svg"><sodipodi:namedview
     pagecolor="#ffffff"
     bordercolor="#666666"
     borderopacity="1"
     objecttolerance="10"
     gridtolerance="10"
     guidetolerance="10"
     inkscape:pageopacity="0"
     inkscape:pageshadow="2"
     inkscape:window-width="1440"
     inkscape:window-height="856"
     id="namedview14308"
     showgrid="false"
     inkscape:zoom="0.125"
     inkscape:cx="2746.0896"
     inkscape:cy="1503.2438"
     inkscape:window-x="62"
     inkscape:window-y="0"
     inkscape:window-maximized="0"
     inkscape:current-layer="svg13650"
     showguides="false"
     fit-margin-top="0"
     fit-margin-left="0"
     fit-margin-right="0"
     fit-margin-bottom="0"><inkscape:grid
       type="xygrid"
       id="grid4212"
       originx="-271.5282"
       originy="-155.08398" /></sodipodi:namedview><metadata
     id="metadata13666"><rdf:RDF><cc:Work
         rdf:about=""><dc:format>image/svg+xml</dc:format><dc:type
           rdf:resource="http://purl.org/dc/dcmitype/StillImage" /><dc:title /></cc:Work></rdf:RDF></metadata><defs
     id="defs14295"><linearGradient
       id="lgrad"
       x1="1186.48"
       y1="1017.2354"
       x2="647.1709"
       y2="1322.8475"
       gradientTransform="scale(1.000006,0.99999405)"
       gradientUnits="userSpaceOnUse"><stop
         offset="0%"
         style="stop-color:#000000;stop-opacity:0"
         id="stop14298" /><stop
         offset="40%"
         style="stop-color:rgb(52,168,83);stop-opacity:1"
         id="stop14300" /><stop
         offset="60%"
         style="stop-color:rgb(251,188,5);stop-opacity:1"
         id="stop14302" /><stop
         offset="100%"
         style="stop-color:rgb(234,67,53);stop-opacity:1"
         id="stop14304" /></linearGradient></defs><g
     id="g5652"
     transform="matrix(1.0001108,0,0,1.0001108,-0.58380477,-1271.8361)"><path
       style="color:#000000;font-style:normal;font-variant:normal;font-weight:normal;font-stretch:normal;font-size:medium;line-height:normal;font-family:sans-serif;text-indent:0;text-align:start;text-decoration:none;text-decoration-line:none;text-decoration-style:solid;text-decoration-color:#000000;letter-spacing:normal;word-spacing:normal;text-transform:none;direction:ltr;block-progression:tb;writing-mode:lr-tb;baseline-shift:baseline;text-anchor:start;white-space:normal;clip-rule:nonzero;display:inline;overflow:visible;visibility:visible;opacity:1;isolation:auto;mix-blend-mode:normal;color-interpolation:sRGB;color-interpolation-filters:linearRGB;solid-color:#000000;solid-opacity:1;fill:#2fd566;fill-opacity:1;fill-rule:nonzero;stroke:none;stroke-width:53.97244644;stroke-linecap:butt;stroke-linejoin:miter;stroke-miterlimit:4;stroke-dasharray:none;stroke-dashoffset:0;stroke-opacity:1;color-rendering:auto;image-rendering:auto;shape-rendering:auto;text-rendering:auto;enable-background:accumulate"
       d="m 2278.1902,1458.6675 c -98.4106,-1.152 -199.6721,9.1333 -303.5416,30.7714 -480.0889,99.9218 -808.1204,399.8017 -963.0863,879.0913 l 0,0.02 -0.024,0.064 c -29.76409,92.1717 -76.40508,138.0112 -168.53807,165.9162 l -0.0158,0 -0.0132,0.01 c -328.89631,99.9137 -557.20204,392.3987 -567.07198,727.6065 -6.54642,222.2865 73.88873,431.709 226.46912,588.0854 157.73222,161.7002 376.88712,251.4986 615.13363,253.2007 386.612,2.8775 773.1068,2.1429 1159.3727,1.4663 l 0,0 0,0 c 168.3322,-0.3383 336.6475,-0.6211 504.9467,-0.6211 l 30.0746,0 c 145.2671,0 290.5096,-0.2255 435.7292,-0.3946 145.2956,-0.1692 290.6251,-0.3946 435.9302,-0.3946 l 0.6595,0 c 240.187,0 480.3892,0.6206 720.4387,2.6475 l 0.054,0 9.1274,0.048 0.1055,0 c 161.6685,-0.085 305.4833,-39.1304 435.0955,-118.9189 l 0,0 0,0 c 290.938,-179.2248 427.1127,-430.6661 404.0691,-749.7989 l 0,0 C 5229.9867,2917.5328 5055.537,2682.4513 4746.811,2553.4978 l 0,0 c -90.612,-37.8573 -137.9499,-86.8584 -172.7965,-179.1866 l 0,-0.01 0,-0.01 c -119.1716,-315.2352 -414.56,-520.2838 -750.634,-520.2838 -131.9098,0 -259.9013,31.7281 -379.1789,93.7173 l 0.3246,1.3008 c -0.024,0.012 -0.043,0.024 -0.067,0.036 l 0,0 -0.3247,-1.2983 c -39.0355,20.3964 -69.7004,28.4907 -100.0907,28.4907 -64.6303,0 -106.8882,-38.2108 -137.0181,-71.5474 l -0.049,-0.053 c -263.2796,-290.1064 -576.7216,-441.5691 -927.7819,-445.9598 l -0.036,0 -0.4662,-0.018 -0.4947,0 -0.013,0 z m 815.1408,686.7501 c 331.1001,3.8524 -193.3118,-471.6531 59.5971,-192.9903 l 0,0 c 0.015,0.017 0.032,0.032 0.046,0.048 0,0.01 0.013,0.014 0.019,0.02 l 10.5908,11.6717 0.4586,0 C 1492.5639,704.72741 2905.8196,3136.8267 2990.7119,3136.8267 c 44.0075,0 600.8679,-976.8834 487.2305,-1125.6973 0.024,-0.012 -13.9116,15.5121 -13.8879,15.5001 109.4159,-56.8501 -1308.7262,1993.7577 -1188.5505,1993.7577 306.3605,0 825.9898,-1020.1564 935.0766,-731.5973 l 143.0092,-41.5801 c 40.0321,106.0677 -607.1179,-1020.5389 -502.545,-976.8495 l 134.5967,1039.0587 c 289.3202,120.8468 364.9847,-65.2356 386.4916,232.3951 21.467,297.3052 434.2617,282.12 159.8905,451.149 -118.4761,72.9308 1031.6477,41.5827 881.3937,41.5827 l -0.2294,0 c -8.0288,-0.057 -3.2314,0 -7.762,-0.053 l -0.095,0 -0.095,0 c -251.3759,-1.792 -506.5122,-2.6279 -721.6675,-2.65 l 0,0 251.7097,-415.6225 c 74.5409,-123.0821 -542.6705,415.8482 -687.7275,416.0171 -145.2386,0.1692 -290.4504,0.3945 -435.6416,0.3945 l -30.0746,0 c -168.3813,0 -345.1577,-174.2786 -513.506,-173.9403 -386.2705,0.6767 -873.4851,-65.0918 -1150.2776,173.0952 l 159.8338,-108.0618 -159.847,-16.6249 c -220.21027,-1.571 -419.67106,40.8212 -563.466,-106.5911 l 0,0 185.0707,182.8739 C 600.62229,3840.9013 4859.7804,4091.6657 4865.7882,3887.6652 4874.749,3583.3394 564.30974,2694.1651 864.24973,2603.0332 973.56647,2569.9236 1045.564,2498.9993 1080.6408,2390.336 l 900.1167,49.8568 C 2129.4927,1980.1912 807.7504,2319.9484 1266.1428,2224.544 l -479.50143,382.3726 -25.2369,1396.4915 c 0,0 2685.06013,44.4816 2777.77373,45.5602 z"
       id="path6441-1-5-7"
       inkscape:connector-curvature="0"
       sodipodi:nodetypes="ccccccccscccccsssssccccccccccccccscccccscccccccccccccccsccsccccccsccccccsssscccccccscccccccc" /><g
       id="g5645"><path
         inkscape:connector-curvature="0"
         id="path6441-1"
         d="m 2282.532,1426.7014 c -98.7933,-1.1704 -200.4486,9.279 -304.722,31.2622 -481.9559,101.5153 -811.2631,406.1779 -966.8317,893.1114 l 0,0.021 -0.024,0.065 c -29.87978,93.6417 -76.70215,140.2123 -169.19343,168.5623 l -0.0159,0 -0.0132,0.01 c -330.17528,101.5094 -559.36886,398.659 -569.27719,739.2129 -6.57187,225.8316 74.17608,438.5941 227.34984,597.4644 158.34561,164.2791 378.35279,255.5097 617.52578,257.2389 388.1154,2.9233 776.1133,2.1771 1163.8813,1.4897 l 0,0 0,0 c 168.9869,-0.3437 337.9568,-0.6311 506.9104,-0.6311 l 30.1916,0 c 145.8321,0 291.6393,-0.229 437.4237,-0.4008 145.8606,-0.1719 291.7553,-0.4009 437.6254,-0.4009 l 0.6621,0 c 241.1211,0 482.2574,0.6305 723.2404,2.6897 l 0.054,0 9.163,0.049 0.1059,0 c 162.2971,-0.086 306.6713,-39.7545 436.7875,-120.8154 l 0,0 0,0 c 292.0694,-182.0832 428.7737,-437.5346 405.6404,-761.7571 l 0,0 c -23.2083,-325.0363 -198.3364,-563.8671 -508.263,-694.8772 l 0,0 c -90.9644,-38.4611 -138.4863,-88.2437 -173.4684,-182.0444 l 0,-0.01 0,-0.011 c -119.6354,-320.2643 -416.1725,-528.5831 -753.5534,-528.5831 -132.4228,0 -260.9121,32.2341 -380.6535,95.2119 l 0.3258,1.3216 c -0.024,0.012 -0.044,0.024 -0.067,0.036 l 0,0 -0.3259,-1.319 c -39.1873,20.7216 -69.9715,28.945 -100.48,28.945 -64.8816,0 -107.3038,-38.8201 -137.5509,-72.6884 l -0.049,-0.054 c -264.3036,-294.7257 -578.9645,-448.604 -931.39,-453.0647 l -0.036,0 -0.4681,-0.019 -0.4966,0 -0.013,0 z m -0.856,72.7712 c 332.3876,3.9139 625.1033,145.7562 878.9957,428.8633 l 0,0 c 0.015,0.017 0.032,0.032 0.046,0.049 0,0.01 0.013,0.014 0.019,0.021 l 10.632,11.8579 0.4604,0 c 36.3606,37.8941 95.4641,85.0609 180.6865,85.0609 44.1787,0 88.0584,-12.8409 134.4345,-37.3529 0.024,-0.012 0.046,-0.024 0.07,-0.036 109.8414,-57.7568 226.0559,-86.8066 346.6989,-86.8066 307.552,0 575.8515,188.1017 685.3625,481.2628 l 0,-0.018 c 40.1878,107.7594 108.3477,179.2681 213.3273,223.6542 l 0,0 c 290.4453,122.7741 442.4092,330.64 463.9997,633.0174 21.5505,302.0467 -96.0858,523.0799 -371.5241,694.8048 -118.9368,74.0938 -247.9833,109.8059 -398.8217,109.8059 l -0.2303,0 c -8.06,-0.057 -3.244,0 -7.7922,-0.054 l -0.095,0 -0.095,0 c -252.3535,-1.8206 -508.4819,-2.6699 -724.474,-2.6923 l 0,0 -0.6621,0 c -145.7256,7e-4 -291.4302,0.2293 -437.0513,0.4009 -145.8034,0.1718 -291.58,0.4008 -437.3357,0.4008 l -30.1916,0 c -169.0362,0 -338.0549,0.2873 -507.0579,0.6311 -387.7727,0.6874 -775.5417,1.4302 -1163.196,-1.4897 l 0,0 -0.013,0 C 896.80193,4039.2571 696.56547,3955.65 552.21132,3805.8867 l 0,0 0,0 C 412.64989,3661.1378 339.18581,3468.3154 345.21703,3261.0614 c 8.9956,-309.1793 216.76951,-579.1581 517.87592,-671.7434 109.74187,-33.6376 182.01935,-105.693 217.23255,-216.0895 l 0,-0.018 c 149.3136,-467.3379 452.3202,-747.0936 912.4952,-844.0196 l 0,0 0,0 c 99.4891,-20.9748 195.7761,-30.8142 288.8502,-29.7184 z"
         style="color:#000000;font-style:normal;font-variant:normal;font-weight:normal;font-stretch:normal;font-size:medium;line-height:normal;font-family:sans-serif;text-indent:0;text-align:start;text-decoration:none;text-decoration-line:none;text-decoration-style:solid;text-decoration-color:#000000;letter-spacing:normal;word-spacing:normal;text-transform:none;direction:ltr;block-progression:tb;writing-mode:lr-tb;baseline-shift:baseline;text-anchor:start;white-space:normal;clip-rule:nonzero;display:inline;overflow:visible;visibility:visible;opacity:1;isolation:auto;mix-blend-mode:normal;color-interpolation:sRGB;color-interpolation-filters:linearRGB;solid-color:#000000;solid-opacity:1;fill:#232323;fill-opacity:1;fill-rule:nonzero;stroke:none;stroke-width:53.97244644;stroke-linecap:butt;stroke-linejoin:miter;stroke-miterlimit:4;stroke-dasharray:none;stroke-dashoffset:0;stroke-opacity:1;color-rendering:auto;image-rendering:auto;shape-rendering:auto;text-rendering:auto;enable-background:accumulate" /><text
         xml:space="preserve"
         style="font-style:normal;font-weight:normal;font-size:295.38851929px;line-height:125%;font-family:sans-serif;letter-spacing:0px;word-spacing:0px;fill:#232323;fill-opacity:1;stroke:none;stroke-width:1px;stroke-linecap:butt;stroke-linejoin:miter;stroke-opacity:1"
         x="1056.5652"
         y="3696.2185"
         id="text4413-7"
         sodipodi:linespacing="125%"><tspan
           sodipodi:role="line"
           id="tspan4415-6"
           x="1056.5652"
           y="3696.2185"
           style="font-style:normal;font-variant:normal;font-weight:normal;font-stretch:normal;font-size:664.62414551px;font-family:Orbitron;-inkscape-font-specification:Orbitron;fill:#232323;fill-opacity:1">software</tspan></text>
<text
         xml:space="preserve"
         style="font-style:normal;font-weight:normal;font-size:272.61499023px;line-height:125%;font-family:sans-serif;letter-spacing:71.20999908px;word-spacing:0px;fill:#ffffff;fill-opacity:1;stroke:none;stroke-width:1px;stroke-linecap:butt;stroke-linejoin:miter;stroke-opacity:1"
         x="1044.8926"
         y="3146.2595"
         id="text4180-2"
         sodipodi:linespacing="125%"><tspan
           sodipodi:role="line"
           id="tspan4182-6"
           x="1044.8926"
           y="3146.2595"
           style="font-style:normal;font-variant:normal;font-weight:300;font-stretch:normal;font-size:1226.76733398px;line-height:125%;font-family:VAGRounded-Light;-inkscape-font-specification:'VAGRounded-Light Light';letter-spacing:71.20999908px;fill:#ffffff;fill-opacity:1">MAITS</tspan></text>
</g></g></svg>